<svg width="0" height="0" class="hidden">
  <symbol xmlns="http://www.w3.org/2000/svg" viewBox="0 0 48 48" id="Programing">
    <defs></defs>
    <title>Programing</title>
    <g id="Programing-2">
      <path d="M45,6H27.75a8.3,8.3,0,0,1-.54,1.35c2.24.9-.7.65,17.79.65a1,1,0,0,1,1,1V34H2V9A1,1,0,0,1,3,8c.59,0-.09.1,1.79-.65A8.44,8.44,0,0,1,4.25,6H3A3,3,0,0,0,0,9V39a3,3,0,0,0,3,3H17.82l-.67,4H16a1,1,0,0,0,0,2H32a1,1,0,0,0,0-2H30.85l-.67-4H45a3,3,0,0,0,3-3V9A3,3,0,0,0,45,6ZM24,37a1,1,0,0,1,0,2A1,1,0,0,1,24,37Zm-4.82,9,.67-4h8.3l.67,4Z"></path>
      <path d="M35,27a1,1,0,0,1-2,0A1,1,0,0,1,35,27Z"></path>
      <path d="M39,27a1,1,0,0,1-2,0A1,1,0,0,1,39,27Z"></path>
      <path d="M27.37,9.57l-1.9-.76A9.83,9.83,0,0,0,25,7.55l.81-1.87a1,1,0,0,0-.21-1.1c-3-3-2.11-2.82-5.1-1.53a9.83,9.83,0,0,0-1.26-.52L18.43.63A1,1,0,0,0,17.5,0h-3a1,1,0,0,0-.93.63l-.76,1.9a9.83,9.83,0,0,0-1.26.52L9.68,2.24a1,1,0,0,0-1.1.21c-3,3-2.82,2.11-1.53,5.1a9.83,9.83,0,0,0-.52,1.26l-1.9.76A1,1,0,0,0,4,10.5v3a1,1,0,0,0,.63.93l1.9.76a9.83,9.83,0,0,0,.52,1.26l-.81,1.87a1,1,0,0,0,.21,1.1c3,3,2.11,2.82,5.1,1.53a9.83,9.83,0,0,0,1.26.52l.76,1.9a1,1,0,0,0,.93.63h3a1,1,0,0,0,.93-.63l.76-1.9A9.83,9.83,0,0,0,20.45,21l1.87.81a1,1,0,0,0,1.1-.21c3-3,2.82-2.11,1.53-5.1a9.83,9.83,0,0,0,.52-1.26l1.9-.76A1,1,0,0,0,28,13.5v-3A1,1,0,0,0,27.37,9.57ZM26,12.82c-1.53.62-2.12.7-2.31,1.35-.81,2.89-1.42,1.09,0,4.32l-1.16,1.16c-1.52-.65-2-1-2.58-.68-2.63,1.48-1.77-.25-3.09,3H15.18c-.62-1.53-.7-2.12-1.35-2.31-2.89-.81-1.09-1.42-4.32,0L8.35,18.49c.65-1.53,1-2,.68-2.58-1.48-2.63.25-1.77-3-3.09V11.18c1.53-.62,2.12-.7,2.31-1.35.81-2.9,1.42-1.08,0-4.32L9.51,4.35c1.53.65,2,1,2.58.68,2.63-1.48,1.77.25,3.09-3h1.64c.62,1.53.7,2.12,1.35,2.31,2.89.81,1.09,1.42,4.32,0l1.16,1.16C23,7,22.64,7.5,23,8.09c1.48,2.63-.26,1.77,3,3.09Z"></path>
      <path d="M32,32H31a2,2,0,0,1-2-2c0-1.7.11-1.48-.71-2.29a1,1,0,0,1,0-1.42c.83-.82.71-.6.71-2.29a2,2,0,0,1,2-2h1a1,1,0,0,1,0,2H31c0,1.62.05,2.13-.62,3,.72.94.62,1.76.62,3h1A1,1,0,0,1,32,32Z"></path>
      <path d="M41,32H40a1,1,0,0,1,0-2h1c0-1.62,0-2.12.62-3A3,3,0,0,1,41,25.17V24H40a1,1,0,0,1,0-2h1a2,2,0,0,1,2,2c0,1.68-.12,1.47.71,2.29a1,1,0,0,1,0,1.42c-.8.79-.71.54-.71,2.29A2,2,0,0,1,41,32Z"></path>
      <path d="M41,20H31a1,1,0,0,1,0-2H41A1,1,0,0,1,41,20Z"></path>
      <path d="M41,16H31a1,1,0,0,1,0-2H41A1,1,0,0,1,41,16Z"></path>
      <path d="M25,32H7a1,1,0,0,1,0-2H25A1,1,0,0,1,25,32Z"></path>
      <path d="M25,28H7a1,1,0,0,1,0-2H25A1,1,0,0,1,25,28Z"></path>
      <path d="M41,12H31a1,1,0,0,1,0-2H41A1,1,0,0,1,41,12Z"></path>
      <path d="M19.73,13.47a4,4,0,0,0-5.2-5.2,1,1,0,0,1-.72-1.86,6,6,0,0,1,7.78,7.78A1,1,0,0,1,19.73,13.47Z"></path>
      <path d="M10.41,9.81a1,1,0,1,1,1.86.72,4,4,0,0,0,5.2,5.2,1,1,0,0,1,.72,1.86A6,6,0,0,1,10.41,9.81Z"></path>
    </g>
  </symbol>
  <symbol xmlns="http://www.w3.org/2000/svg" viewBox="0 0 48 48" id="Programing_1">
    <defs></defs>
    <title>Programing_1</title>
    <g id="Programing">
      <path d="M23,16V13a1,1,0,0,1,2,0v3A1,1,0,0,1,23,16Z"></path>
      <path d="M27,16V13a1,1,0,0,1,2,0v3A1,1,0,0,1,27,16Z"></path>
      <path d="M31,16V13a1,1,0,0,1,2,0v3A1,1,0,0,1,31,16Z"></path>
      <path d="M19,16V13a1,1,0,0,1,2,0v3A1,1,0,0,1,19,16Z"></path>
      <path d="M36,23H33a1,1,0,0,1,0-2h3A1,1,0,0,1,36,23Z"></path>
      <path d="M36,27H33a1,1,0,0,1,0-2h3A1,1,0,0,1,36,27Z"></path>
      <path d="M36,19H33a1,1,0,0,1,0-2h3A1,1,0,0,1,36,19Z"></path>
      <path d="M15,23H12a1,1,0,0,1,0-2h3A1,1,0,0,1,15,23Z"></path>
      <path d="M15,27H12a1,1,0,0,1,0-2h3A1,1,0,0,1,15,27Z"></path>
      <path d="M15,19H12a1,1,0,0,1,0-2h3A1,1,0,0,1,15,19Z"></path>
      <path d="M15,16V13a1,1,0,0,1,2,0v3A1,1,0,0,1,15,16Z"></path>
      <path d="M23,31V28a1,1,0,0,1,2,0v3A1,1,0,0,1,23,31Z"></path>
      <path d="M27,31V28a1,1,0,0,1,2,0v3A1,1,0,0,1,27,31Z"></path>
      <path d="M31,31V28a1,1,0,0,1,2,0v3A1,1,0,0,1,31,31Z"></path>
      <path d="M19,31V28a1,1,0,0,1,2,0v3A1,1,0,0,1,19,31Z"></path>
      <path d="M15,31V28a1,1,0,0,1,2,0v3A1,1,0,0,1,15,31Z"></path>
      <rect x="23" y="46" width="2" height="2"></rect>
      <rect x="15" y="46" width="2" height="2" transform="translate(32 94) rotate(-180)"></rect>
      <rect x="7" y="46" width="2" height="2" transform="translate(16 94) rotate(-180)"></rect>
      <rect x="31" y="46" width="2" height="2"></rect>
      <rect x="39" y="46" width="2" height="2"></rect>
      <path d="M48,25a10.92,10.92,0,0,0-7.15-10.3A17,17,0,0,0,8.12,11,13,13,0,0,0,11,35.83V37.5C7.14,40.4,7,40.33,7,41v2a1,1,0,0,0,2,0V41.5c3.86-2.9,4-2.83,4-3.5V36h4v3.59c-2.27,2.27-2,1.66-2,3.41a1,1,0,0,0,2,0v-.59l1.71-1.7c.39-.39.29-.36.29-4.71h4v7a1,1,0,0,0,2,0V36h4c0,4.34-.1,4.32.29,4.71L31,42.41V43a1,1,0,0,0,2,0c0-1.75.26-1.15-2-3.41V36h4v2c0,.67.12.59,4,3.5V43a1,1,0,0,0,2,0V41c0-.67-.12-.59-4-3.5V36A11,11,0,0,0,48,25ZM2,23A11,11,0,0,1,12.08,12a1,1,0,0,0-.16-2q-.66.06-1.29.18C17-2.48,36.06.13,38.73,14.15c-.21,0-.42-.08-.63-.1a1,1,0,0,0-.2,2A9,9,0,0,1,37,34H13A11,11,0,0,1,2,23Z"></path>
      <path d="M32,15H16a2,2,0,0,0-2,2V27a2,2,0,0,0,2,2H32a2,2,0,0,0,2-2V17A2,2,0,0,0,32,15ZM20.71,23.29A1,1,0,0,1,20,25c-.54,0-.57-.15-2.71-2.29a1,1,0,0,1,0-1.42l2-2a1,1,0,0,1,1.42,1.42L19.41,22Zm5.24-4-2,6a1,1,0,0,1-1.9-.64l2-6A1,1,0,0,1,26,19.32Zm4.76,3.39C28.53,24.89,28.54,25,28,25a1,1,0,0,1-.71-1.71L28.59,22l-1.3-1.29a1,1,0,0,1,1.42-1.42l2,2A1,1,0,0,1,30.71,22.71Z"></path>
    </g>
  </symbol>
  <symbol xmlns="http://www.w3.org/2000/svg" viewBox="0 0 48 48" id="Programmer">
    <defs></defs>
    <title>Programmer</title>
    <g id="Programmer">
      <polygon points="18 32 14 36 9.58 30.68 14 30 18 32"></polygon>
      <polygon points="26.42 30.68 22 36 18 32 22 30 26.42 30.68"></polygon>
      <path d="M26.94,20A4,4,0,1,0,27,12H26a1,1,0,0,0-1,1v6a7,7,0,0,1-14,0V13a1,1,0,0,0-1-1H9a4,4,0,1,0,.06,8A9,9,0,0,0,13,26.47v2.67L5.09,30.36A6,6,0,0,0,0,36.29V47a1,1,0,0,0,1,1H29.18a2.92,2.92,0,0,1,0-2H9V39a1,1,0,0,0-2,0v7H2V36.29a4,4,0,0,1,3.39-3.95L13.84,31c3.94,2,3.83,2,4.16,2s.22,0,4.16-2l3.84.59v-2l-3-.46V26.47A9,9,0,0,0,26.94,20ZM27,14a2,2,0,0,1,0,4ZM9,18a2,2,0,0,1,0-4ZM21,29.38l-3,1.5-3-1.5v-1.9a9,9,0,0,0,6,0Z"></path>
      <path d="M45,26H29a3,3,0,0,0-3,3V41a3,3,0,0,0,3,3h3.72l-.5,2c-1.7,0-1.48,2-.22,2H42a1,1,0,0,0,0-2c-.31,0-.14.3-.72-2H45a3,3,0,0,0,3-3V29A3,3,0,0,0,45,26ZM34.28,46l.5-2h4.44l.5,2ZM46,40H28V29a1,1,0,0,1,1-1H45a1,1,0,0,1,1,1Z"></path>
      <path d="M35.05,36.68l2-6a1,1,0,0,1,1.9.64l-2,6A1,1,0,0,1,35.05,36.68Z"></path>
      <path d="M41,37a1,1,0,0,1-.71-1.71L41.59,34l-1.3-1.29a1,1,0,0,1,1.42-1.42l2,2a1,1,0,0,1,0,1.42C41.53,36.89,41.54,37,41,37Z"></path>
      <path d="M33,37c-.54,0-.57-.15-2.71-2.29a1,1,0,0,1,0-1.42l2-2a1,1,0,0,1,1.42,1.42L32.41,34l1.3,1.29A1,1,0,0,1,33,37Z"></path>
      <path d="M20,10c-.21-.32-2.79,3-12,3V8a8,8,0,0,1,8-8c2.38,0,4.72-.28,7,2h0a5,5,0,0,1,5,5v6H25.61A6.75,6.75,0,0,1,20,10Z"></path>
    </g>
  </symbol>
  <symbol xmlns="http://www.w3.org/2000/svg" viewBox="0 0 48 48" id="Responsive">
    <defs></defs>
    <title>Responsive</title>
    <g id="Responsive">
      <path d="M30.05,17.68l2-6a1,1,0,0,1,1.9.64l-2,6A1,1,0,0,1,30.05,17.68Z"></path>
      <path d="M36,18a1,1,0,0,1-.71-1.71L36.59,15l-1.3-1.29a1,1,0,0,1,1.42-1.42l2,2a1,1,0,0,1,0,1.42C36.53,17.89,36.54,18,36,18Z"></path>
      <path d="M28,18c-.54,0-.57-.15-2.71-2.29a1,1,0,0,1,0-1.42l2-2a1,1,0,0,1,1.42,1.42L27.41,15l1.3,1.29A1,1,0,0,1,28,18Z"></path>
      <path d="M45,6H43V8h2a1,1,0,0,1,1,1V34H2V9A1,1,0,0,1,3,8H21V6H3A3,3,0,0,0,0,9V39a3,3,0,0,0,3,3H17.82l-.67,4H16a1,1,0,0,0,0,2H32a1,1,0,0,0,0-2H30.85l-.67-4H45a3,3,0,0,0,3-3V9A3,3,0,0,0,45,6ZM24,37a1,1,0,0,1,0,2A1,1,0,0,1,24,37Zm-4.82,9,.67-4h8.3l.67,4Z"></path>
      <path d="M39,0H25a4,4,0,0,0-4,4V28a4,4,0,0,0,4,4H39a4,4,0,0,0,4-4V4A4,4,0,0,0,39,0ZM25,2h2a2,2,0,0,0,2,2h6a2,2,0,0,0,2-2h2a2,2,0,0,1,2,2V24H23V4A2,2,0,0,1,25,2ZM39,30H25a2,2,0,0,1-2-2V26H41v2A2,2,0,0,1,39,30Z"></path>
      <path d="M18,20H6a1,1,0,0,1-1-1V11a1,1,0,0,1,1-1H18a1,1,0,0,1,1,1v8A1,1,0,0,1,18,20ZM7,18H17V12H7Z"></path>
      <path d="M18,24H6a1,1,0,0,1,0-2H18A1,1,0,0,1,18,24Z"></path>
      <path d="M18,28H6a1,1,0,0,1,0-2H18A1,1,0,0,1,18,28Z"></path>
      <path d="M18,32H6a1,1,0,0,1,0-2H18A1,1,0,0,1,18,32Z"></path>
      <path d="M33,28a1,1,0,0,1-2,0A1,1,0,0,1,33,28Z"></path>
    </g>
  </symbol>
  <symbol xmlns="http://www.w3.org/2000/svg" viewBox="0 0 48 48" id="Review">
    <defs></defs>
    <title>Review</title>
    <g id="Review">
      <path d="M45,0H3A3,3,0,0,0,0,3V45a3,3,0,0,0,3,3H45a3,3,0,0,0,3-3V3A3,3,0,0,0,45,0ZM29,3H43a1,1,0,0,1,0,2H29A1,1,0,0,1,29,3ZM13,3a1,1,0,0,1,0,2A1,1,0,0,1,13,3ZM9,3A1,1,0,0,1,9,5,1,1,0,0,1,9,3ZM5,3A1,1,0,0,1,5,5,1,1,0,0,1,5,3ZM46,45a1,1,0,0,1-1,1H3a1,1,0,0,1-1-1V8H46Z"></path>
      <polygon points="26 30.1 26.71 31.22 28 31.55 27.15 32.57 27.24 33.9 26 33.41 24.76 33.9 24.85 32.57 24 31.55 25.29 31.22 26 30.1"></polygon>
      <polygon points="32 30.1 32.71 31.22 34 31.55 33.15 32.57 33.24 33.9 32 33.41 30.76 33.9 30.85 32.57 30 31.55 31.29 31.22 32 30.1"></polygon>
      <path d="M42,38H22a1,1,0,0,1,0-2H42A1,1,0,0,1,42,38Z"></path>
      <path d="M38,42H22a1,1,0,0,1,0-2H38A1,1,0,0,1,38,42Z"></path>
      <polygon points="26 12.1 26.71 13.22 28 13.55 27.15 14.57 27.24 15.9 26 15.41 24.76 15.9 24.85 14.57 24 13.55 25.29 13.22 26 12.1"></polygon>
      <polygon points="32 12.1 32.71 13.22 34 13.55 33.15 14.57 33.24 15.9 32 15.41 30.76 15.9 30.85 14.57 30 13.55 31.29 13.22 32 12.1"></polygon>
      <polygon points="38 12.1 38.71 13.22 40 13.55 39.15 14.57 39.24 15.9 38 15.41 36.76 15.9 36.85 14.57 36 13.55 37.29 13.22 38 12.1"></polygon>
      <path d="M12,29a7,7,0,1,0,4.45,12.4A7,7,0,0,0,12,29ZM9.53,40.32a3,3,0,0,1,4.94,0A4.81,4.81,0,0,1,9.53,40.32ZM11,36a1,1,0,0,1,2,0A1,1,0,0,1,11,36Zm5,3a5,5,0,0,0-1.51-1.31,3,3,0,1,0-5,0A5,5,0,0,0,8,39a5,5,0,1,1,8,0Z"></path>
      <path d="M7.55,23.4A7,7,0,1,0,12,11,7,7,0,0,0,7.55,23.4Zm2-1.08a3,3,0,0,1,4.94,0A4.81,4.81,0,0,1,9.53,22.32ZM11,18a1,1,0,0,1,2,0A1,1,0,0,1,11,18Zm1-5a5,5,0,0,1,4,8,5,5,0,0,0-1.51-1.31,3,3,0,1,0-5,0A5,5,0,0,0,8,21,5,5,0,0,1,12,13Z"></path>
      <path d="M42,20H22a1,1,0,0,1,0-2H42A1,1,0,0,1,42,20Z"></path>
      <path d="M38,24H22a1,1,0,0,1,0-2H38A1,1,0,0,1,38,24Z"></path>
    </g>
  </symbol>
  <symbol xmlns="http://www.w3.org/2000/svg" viewBox="0 0 48 48" id="Scan Virus">
    <defs></defs>
    <title>Scan Virus</title>
    <g id="Scan_Virus">
      <path d="M45,0H3A3,3,0,0,0,0,3V43a3,3,0,0,0,3,3H15.54a17.73,17.73,0,0,1-3.18-2H3a1,1,0,0,1-1-1V8H46V43a1,1,0,0,1-1,1H35.64a17.73,17.73,0,0,1-3.18,2H45a3,3,0,0,0,3-3V3A3,3,0,0,0,45,0ZM5,5A1,1,0,0,1,5,3,1,1,0,0,1,5,5ZM9,5A1,1,0,0,1,9,3,1,1,0,0,1,9,5Zm4,0a1,1,0,0,1,0-2A1,1,0,0,1,13,5ZM43,5H29a1,1,0,0,1,0-2H43A1,1,0,0,1,43,5Z"></path>
      <path d="M42,28H41A17,17,0,0,0,25,12.05V11a1,1,0,0,0-2,0v1.05A17,17,0,0,0,7.05,28H6a1,1,0,0,0,0,2h1A17,17,0,0,0,23,46v1a1,1,0,0,0,2,0V46A17,17,0,0,0,41,30h1A1,1,0,0,0,42,28ZM25,44V43a1,1,0,0,0-2,0v1A15,15,0,0,1,9.05,30H10a1,1,0,0,0,0-2H9.05A15,15,0,0,1,23,14.05V15a1,1,0,0,0,2,0v-.95A15,15,0,0,1,39,28H38a1,1,0,0,0,0,2h1A15,15,0,0,1,25,44Z"></path>
      <path d="M30,33h2a1,1,0,0,0,0-2H30V29h2a1,1,0,0,0,0-2H29.82A3,3,0,0,0,28,25.18c0-1.36.13-2.56-1.05-3.85l.94-1.88a1,1,0,0,0-1.79-.9l-.83,1.68a3.58,3.58,0,0,0-2.54,0l-.84-1.68a1,1,0,0,0-1.78.9l.94,1.88C19.86,22.64,20,23.89,20,25.18A3,3,0,0,0,18.18,27H16a1,1,0,0,0,0,2h2v2H16a1,1,0,0,0,0,2h2a10.53,10.53,0,0,0,.09,2H16a1,1,0,0,0,0,2h2.81a6,6,0,0,0,10.38,0H32a1,1,0,0,0,0-2H29.91A10.53,10.53,0,0,0,30,33Zm-7,4.86A4,4,0,0,1,20,34V28a1,1,0,0,1,1-1h2ZM28,34a4,4,0,0,1-3,3.86V27h2a1,1,0,0,1,1,1Z"></path>
    </g>
  </symbol>
  <symbol xmlns="http://www.w3.org/2000/svg" viewBox="0 0 48 48" id="Schedule">
    <defs></defs>
    <title>Schedule</title>
    <g id="Schedule">
      <path d="M37,26A11,11,0,1,0,48,37,11,11,0,0,0,37,26Zm1,19.94V45a1,1,0,0,0-2,0v.94A9,9,0,0,1,28.06,38H29a1,1,0,0,0,0-2h-.94A9,9,0,0,1,36,28.06V29a1,1,0,0,0,2,0v-.94A9,9,0,0,1,45.94,36H45a1,1,0,0,0,0,2h.94A9,9,0,0,1,38,45.94Z"></path>
      <path d="M40.29,32.29,36.59,36a1,1,0,0,0-.37,1.64c3.07,3.07,3,3.13,3.54,3.13a1,1,0,0,0,.7-1.71l-2.05-2,3.3-3.29A1,1,0,0,0,40.29,32.29Z"></path>
      <path d="M41,4H38V3a3,3,0,0,0-6,0V4H12V3A3,3,0,0,0,6,3V4H3A3,3,0,0,0,0,7V41a3,3,0,0,0,3,3H26.05A12.28,12.28,0,0,1,25,42H3a1,1,0,0,1-1-1V13H42V25a12.28,12.28,0,0,1,2,1.05V7A3,3,0,0,0,41,4ZM10,7A1,1,0,0,1,8,7V3a1,1,0,0,1,2,0ZM36,7a1,1,0,0,1-2,0V3a1,1,0,0,1,2,0Z"></path>
      <path d="M12.05,37.68l2-6a1,1,0,0,1,1.9.64l-2,6A1,1,0,0,1,12.05,37.68Z"></path>
      <path d="M18,38a1,1,0,0,1-.71-1.71L18.59,35l-1.3-1.29a1,1,0,0,1,1.42-1.42l2,2a1,1,0,0,1,0,1.42C18.53,37.89,18.54,38,18,38Z"></path>
      <path d="M10,38c-.54,0-.57-.15-2.71-2.29a1,1,0,0,1,0-1.42l2-2a1,1,0,0,1,1.42,1.42L9.41,35l1.3,1.29A1,1,0,0,1,10,38Z"></path>
      <path d="M11,18H7a1,1,0,0,1,0-2h4A1,1,0,0,1,11,18Z"></path>
      <path d="M19,18H15a1,1,0,0,1,0-2h4A1,1,0,0,1,19,18Z"></path>
      <path d="M28,18H24a1,1,0,0,1,0-2h4A1,1,0,0,1,28,18Z"></path>
      <path d="M37,18H33a1,1,0,0,1,0-2h4A1,1,0,0,1,37,18Z"></path>
      <path d="M11,23H7a1,1,0,0,1,0-2h4A1,1,0,0,1,11,23Z"></path>
      <path d="M19,23H15a1,1,0,0,1,0-2h4A1,1,0,0,1,19,23Z"></path>
      <path d="M28,23H24a1,1,0,0,1,0-2h4A1,1,0,0,1,28,23Z"></path>
      <path d="M37,23H33a1,1,0,0,1,0-2h4A1,1,0,0,1,37,23Z"></path>
      <path d="M11,28H7a1,1,0,0,1,0-2h4A1,1,0,0,1,11,28Z"></path>
      <path d="M19,28H15a1,1,0,0,1,0-2h4A1,1,0,0,1,19,28Z"></path>
      <path d="M28,28H24a1,1,0,0,1,0-2h4A1,1,0,0,1,28,28Z"></path>
      <path d="M37,39a2,2,0,1,1,2-2A2,2,0,0,1,37,39Zm0-2Z"></path>
    </g>
  </symbol>
  <symbol xmlns="http://www.w3.org/2000/svg" viewBox="0 0 48 48" id="Script">
    <defs></defs>
    <title>Script</title>
    <g id="Script">
      <path d="M44,0H12A4,4,0,0,0,8,4V6.35A2.94,2.94,0,0,1,10,5V4a2,2,0,0,1,2-2H40.56C39.76,3.35,40,.5,40,43a3,3,0,0,1-6,0V41a1,1,0,0,0-1-1H10V33a3,3,0,0,1-2-1.31V40H3a1,1,0,0,0-1,1v2a5,5,0,0,0,5,5H37a5,5,0,0,0,5-5V14h5a1,1,0,0,0,1-1V4A4,4,0,0,0,44,0Z"></path>
      <path d="M23.37,16.57l-1.9-.76A9.83,9.83,0,0,0,21,14.55l.81-1.87a1,1,0,0,0-.21-1.1c-3-3-2.11-2.82-5.1-1.53a9.83,9.83,0,0,0-1.26-.52l-.76-1.9A1,1,0,0,0,13.5,7h-3a1,1,0,0,0-.93.63l-.76,1.9a9.83,9.83,0,0,0-1.26.52L5.68,9.24a1,1,0,0,0-1.1.21c-3,3-2.82,2.11-1.53,5.1a9.83,9.83,0,0,0-.52,1.26l-1.9.76A1,1,0,0,0,0,17.5v3c0,.82.51.88,2.53,1.69a9.83,9.83,0,0,0,.52,1.26l-.81,1.87a1,1,0,0,0,.21,1.1c3,3,2.11,2.82,5.1,1.53a9.83,9.83,0,0,0,1.26.52l.76,1.9a1,1,0,0,0,.93.63h3a1,1,0,0,0,.93-.63l.76-1.9A9.83,9.83,0,0,0,16.45,28l1.87.81a1,1,0,0,0,1.1-.21c3-3,2.82-2.11,1.53-5.1a9.83,9.83,0,0,0,.52-1.26l1.9-.76A1,1,0,0,0,24,20.5v-3A1,1,0,0,0,23.37,16.57ZM22,19.82c-1.55.62-2.12.7-2.3,1.35-.82,2.89-1.42,1.11-.05,4.32l-1.16,1.16c-1.5-.64-2-1-2.58-.68-2.62,1.48-1.77-.26-3.09,3H11.18c-.62-1.53-.7-2.12-1.35-2.31-2.89-.81-1.08-1.42-4.32,0L4.35,25.49c.77-1.8,1-2,.68-2.58-1.48-2.63.26-1.77-3-3.09V18.18c1.55-.62,2.12-.7,2.3-1.35.83-2.9,1.43-1.1,0-4.32l1.16-1.16c1.59.68,2,1,2.58.68,2.62-1.48,1.77.26,3.09-3h1.64c.62,1.53.7,2.12,1.35,2.31,2.9.81,1.08,1.42,4.32,0l1.16,1.16c-.77,1.8-1,2-.68,2.58,1.48,2.63-.26,1.77,3,3.09Z"></path>
      <path d="M9.81,13.41a1,1,0,0,0,.72,1.86,4,4,0,0,1,5.2,5.2,1,1,0,0,0,1.86.72A6,6,0,0,0,9.81,13.41Z"></path>
      <path d="M13.47,22.73a4,4,0,0,1-5.2-5.2,1,1,0,0,0-1.86-.72,6,6,0,0,0,7.78,7.78A1,1,0,0,0,13.47,22.73Z"></path>
      <path d="M28.05,35.68l2-6a1,1,0,0,1,1.9.64l-2,6A1,1,0,0,1,28.05,35.68Z"></path>
      <path d="M34,36a1,1,0,0,1-.71-1.71L34.59,33l-1.3-1.29a1,1,0,0,1,1.42-1.42l2,2a1,1,0,0,1,0,1.42C34.53,35.89,34.54,36,34,36Z"></path>
      <path d="M26,36c-.54,0-.57-.15-2.71-2.29a1,1,0,0,1,0-1.42l2-2a1,1,0,0,1,1.42,1.42L25.41,33l1.3,1.29A1,1,0,0,1,26,36Z"></path>
      <path d="M36,18H28a1,1,0,0,1,0-2h8A1,1,0,0,1,36,18Z"></path>
      <path d="M36,22H28a1,1,0,0,1,0-2h8A1,1,0,0,1,36,22Z"></path>
      <path d="M36,26H28a1,1,0,0,1,0-2h8A1,1,0,0,1,36,26Z"></path>
      <path d="M36,10H24a1,1,0,0,1,0-2H36A1,1,0,0,1,36,10Z"></path>
      <path d="M36,14H28a1,1,0,0,1,0-2h8A1,1,0,0,1,36,14Z"></path>
    </g>
  </symbol>
  <symbol xmlns="http://www.w3.org/2000/svg" viewBox="0 0 48 48" id="Server">
    <defs></defs>
    <title>Server</title>
    <g id="Server">
      <path d="M6,27a1,1,0,0,1-2,0A1,1,0,0,1,6,27Z"></path>
      <path d="M6,35a1,1,0,0,1-2,0A1,1,0,0,1,6,35Z"></path>
      <path d="M10,35a1,1,0,0,1-2,0A1,1,0,0,1,10,35Z"></path>
      <path d="M6,43a1,1,0,0,1-2,0A1,1,0,0,1,6,43Z"></path>
      <path d="M10,43a1,1,0,0,1-2,0A1,1,0,0,1,10,43Z"></path>
      <path d="M19,44H15a1,1,0,0,1,0-2h4A1,1,0,0,1,19,44Z"></path>
      <path d="M45,0H19a3,3,0,0,0-3,3v7.41A3.42,3.42,0,0,1,18,10V3a1,1,0,0,1,1-1H45a1,1,0,0,1,1,1V35a1,1,0,0,1-1,1H26a8.41,8.41,0,0,1-.11,2H45a3,3,0,0,0,3-3V3A3,3,0,0,0,45,0Z"></path>
      <path d="M20,6h4a1,1,0,0,1,0,2H20v2H31V4H20Zm8,0a1,1,0,0,1,0,2A1,1,0,0,1,28,6Z"></path>
      <path d="M20,18v0h.05Zm3.33-6,.32.79.89-.39a3,3,0,0,1,3.3.64L30,15.16A3,3,0,0,1,30.75,18H31V12Z"></path>
      <path d="M30.21,28.65l.39.89a3,3,0,0,1-.64,3.3L28.8,34H31V28.33Z"></path>
      <path d="M40,6h4V4H33v6H44V8H40A1,1,0,0,1,40,6ZM36,8a1,1,0,0,1,0-2A1,1,0,0,1,36,8Z"></path>
      <path d="M33,18H44V16H40a1,1,0,0,1,0-2h4V12H33Zm3-4a1,1,0,0,1,0,2A1,1,0,0,1,36,14Z"></path>
      <path d="M33,26H44V24H40a1,1,0,0,1,0-2h4V20H33Zm3-4a1,1,0,0,1,0,2A1,1,0,0,1,36,22Z"></path>
      <path d="M33,34H44V32H40a1,1,0,0,1,0-2h4V28H33Zm3-4a1,1,0,0,1,0,2A1,1,0,0,1,36,30Z"></path>
      <path d="M30.37,21.57l-1.9-.76A9.83,9.83,0,0,0,28,19.55l.81-1.87a1,1,0,0,0-.21-1.1c-3-3-2.11-2.81-5.1-1.53a9.83,9.83,0,0,0-1.26-.52l-.76-1.9A1,1,0,0,0,20.5,12h-3a1,1,0,0,0-.93.63l-.76,1.9a9.83,9.83,0,0,0-1.26.52l-1.87-.81a1,1,0,0,0-1.1.21c-3,3-2.82,2.11-1.53,5.1a9.83,9.83,0,0,0-.52,1.26c-2,.8-2.15.78-2.39,1.19H3a3,3,0,0,0-3,3c0,4.16-.21,4.9.78,6C-.2,32.09,0,32.73,0,37a3,3,0,0,0,.78,2C-.2,40.09,0,40.73,0,45a3,3,0,0,0,3,3H21a3,3,0,0,0,3-3c0-4.16.21-4.9-.78-6,1-1.15.78-2.18.78-5.81,2.33,1,1.63,1.15,4.55-1.77.61-.61.19-1.15-.6-3a9.83,9.83,0,0,0,.52-1.26l1.9-.76A1,1,0,0,0,31,25.5v-3A1,1,0,0,0,30.37,21.57ZM2,25a1,1,0,0,1,1-1H7c0,2.54-.28,2.07,2.53,3.19a9.83,9.83,0,0,0,.52,1.26L9.38,30H3a1,1,0,0,1-1-1Zm20,8.94V37a1,1,0,0,1-1,1H3a1,1,0,0,1-1-1V33a1,1,0,0,1,1-1h7c2.32,2.32,1.61,2.2,4.52,1a9.83,9.83,0,0,0,1.26.52l.76,1.9a1,1,0,0,0,.93.63C21.62,36,21,36.42,22,33.94ZM22,45a1,1,0,0,1-1,1H3a1,1,0,0,1-1-1V41a1,1,0,0,1,1-1H21a1,1,0,0,1,1,1Zm7-20.18c-1.53.62-2.12.7-2.31,1.35-.81,2.89-1.42,1.09,0,4.32l-1.16,1.16c-1.52-.65-2-1-2.58-.68-2.63,1.48-1.77-.25-3.09,3H18.18c-.62-1.53-.7-2.12-1.35-2.31-2.89-.81-1.09-1.42-4.32,0l-1.16-1.16c.65-1.53,1-2,.68-2.58-1.48-2.63.25-1.77-3-3.09V23.18c1.53-.62,2.12-.7,2.31-1.35.81-2.89,1.42-1.09,0-4.32l1.16-1.16c1.53.65,2,1,2.58.68,2.63-1.48,1.77.25,3.09-3h1.64c.62,1.53.7,2.12,1.35,2.31,2.9.81,1.08,1.42,4.32,0l1.16,1.16c-.65,1.53-1,2-.68,2.58,1.48,2.63-.25,1.77,3,3.09Z"></path>
      <path d="M22.73,25.47a4,4,0,0,0-5.2-5.2,1,1,0,0,1-.72-1.86,6,6,0,0,1,7.78,7.78A1,1,0,0,1,22.73,25.47Z"></path>
      <path d="M13.41,21.81a1,1,0,0,1,1.86.72,4,4,0,0,0,5.2,5.2,1,1,0,0,1,.72,1.86A6,6,0,0,1,13.41,21.81Z"></path>
    </g>
  </symbol>
  <symbol xmlns="http://www.w3.org/2000/svg" viewBox="0 0 48 48" id="Simulation">
    <defs></defs>
    <title>Simulation</title>
    <g id="Simulation">
      <polygon points="24 36 21 39 15.81 34.86 21 34 24 36"></polygon>
      <polygon points="32.19 34.86 27 39 24 36 27 34 32.19 34.86"></polygon>
      <path d="M35.82,34.46,28,33.15V30.74A7,7,0,0,0,30.92,26h.58a3.5,3.5,0,0,0,0-7H30a1,1,0,0,0-1,1v5a5,5,0,0,1-1.95,3.93,1,1,0,0,0-1,.6,4.81,4.81,0,0,1-4.16,0,1,1,0,0,0-1-.6A5,5,0,0,1,19,25V20a1,1,0,0,0-1-1H16.5a3.5,3.5,0,0,0,0,7h.58A7,7,0,0,0,20,30.74v2.41l-7.82,1.31A5,5,0,0,0,8,39.39V47a1,1,0,0,0,1,1H39a1,1,0,0,0,1-1V39.39A5,5,0,0,0,35.82,34.46ZM31,21h.5a1.5,1.5,0,0,1,0,3H31ZM17,24h-.5a1.5,1.5,0,0,1,0-3H17Zm5,7.71a7.07,7.07,0,0,0,4,0v1.75L24,34.8l-2-1.34ZM38,46H34V42a1,1,0,0,0-2,0v4H16V42a1,1,0,0,0-2,0v4H10V39.39a3,3,0,0,1,2.51-3l8.26-1.38c2.82,1.87,2.85,2,3.24,2s.53-.16,3.22-2l8.26,1.38a3,3,0,0,1,2.51,3Z"></path>
      <path d="M47,0H1A1,1,0,0,0,0,1V29a1,1,0,0,0,1,1H16.54a9.19,9.19,0,0,1-1-2H2V2H46V28H32.48a9.19,9.19,0,0,1-1,2H47a1,1,0,0,0,1-1V1A1,1,0,0,0,47,0Z"></path>
      <path d="M9.05,10.68l2-6a1,1,0,0,1,1.9.64l-2,6A1,1,0,0,1,9.05,10.68Z"></path>
      <path d="M15,11a1,1,0,0,1-.71-1.71L15.59,8l-1.3-1.29a1,1,0,0,1,1.42-1.42l2,2a1,1,0,0,1,0,1.42C15.53,10.89,15.54,11,15,11Z"></path>
      <path d="M7,11c-.54,0-.57-.15-2.71-2.29a1,1,0,0,1,0-1.42l2-2A1,1,0,0,1,7.71,6.71L6.41,8l1.3,1.29A1,1,0,0,1,7,11Z"></path>
      <path d="M38,8.59l-3.18,3.17A5,5,0,0,1,38,4.1Z"></path>
      <path d="M39.41,10H43.9a5,5,0,0,1-7.66,3.18Z"></path>
      <path d="M43.9,8H40V4.1A5,5,0,0,1,43.9,8Z"></path>
      <path d="M12,18H5a1,1,0,0,1,0-2h7A1,1,0,0,1,12,18Z"></path>
      <path d="M9,22H5a1,1,0,0,1,0-2H9A1,1,0,0,1,9,22Z"></path>
      <path d="M9,26H5a1,1,0,0,1,0-2H9A1,1,0,0,1,9,26Z"></path>
      <path d="M43,18H36a1,1,0,0,1,0-2h7A1,1,0,0,1,43,18Z"></path>
      <path d="M43,22H39a1,1,0,0,1,0-2h4A1,1,0,0,1,43,22Z"></path>
      <path d="M43,26H39a1,1,0,0,1,0-2h4A1,1,0,0,1,43,26Z"></path>
      <path d="M26,18h0c-3.48,1.74-6.22,2-10,2V17a6,6,0,0,1,6-6h3.76A3.62,3.62,0,0,1,29,13a3,3,0,0,1,3,3v4C30,20,28,20,26,18Z"></path>
    </g>
  </symbol>
  <symbol xmlns="http://www.w3.org/2000/svg" viewBox="0 0 48 48" id="Structure">
    <defs></defs>
    <title>Structure</title>
    <g id="Structure">
      <path d="M39,38a1,1,0,0,0,0-2H36V30h3a1,1,0,0,0,0-2H36V18.82A3,3,0,1,0,32.18,15H26.82A3,3,0,0,0,25,13.18V9.58l6.5-3.71a1,1,0,0,0,0-1.74c-7.7-4.4-7.33-4.38-8-4L16.73,4H10A1,1,0,0,0,9,5V34a1,1,0,0,0,2,0V6h5.73L23,9.58v3.6a3,3,0,0,0,0,5.64V22H19c-.72,0-.75.32-2.83,3.45a1,1,0,0,0,0,1.1l2,3c.42.64.24.45,10.83.45.72,0,.75-.32,2.83-3.45a1,1,0,0,0,0-1.1l-2-3C29.41,21.81,29,22,25,22V18.82A3,3,0,0,0,26.82,17h5.36A3,3,0,0,0,34,18.82V36H31a1,1,0,0,0,0,2h3v7a1,1,0,0,0,1,1h4a1,1,0,0,0,0-2H36V38ZM29.8,26l-1.34,2H19.54L18.2,26l1.34-2h8.92ZM35,15a1,1,0,0,1,0,2A1,1,0,0,1,35,15ZM24,2.15,29,5,24,7.85,19,5ZM24,17a1,1,0,0,1,0-2A1,1,0,0,1,24,17Z"></path>
      <path d="M18,34H2a2,2,0,0,0-2,2V46a2,2,0,0,0,2,2H18a2,2,0,0,0,2-2V36A2,2,0,0,0,18,34ZM6.71,42.29A1,1,0,0,1,6,44c-.54,0-.57-.15-2.71-2.29a1,1,0,0,1,0-1.42l2-2a1,1,0,0,1,1.42,1.42L5.41,41Zm5.24-4-2,6a1,1,0,0,1-1.9-.64l2-6A1,1,0,0,1,12,38.32Zm4.76,3.39C14.53,43.89,14.54,44,14,44a1,1,0,0,1-.71-1.71L14.59,41l-1.3-1.29a1,1,0,0,1,1.42-1.42l2,2A1,1,0,0,1,16.71,41.71Z"></path>
      <rect x="38" y="26" width="10" height="6" rx="1"></rect>
      <rect x="38" y="34" width="10" height="6" rx="1"></rect>
      <rect x="38" y="42" width="10" height="6" rx="1"></rect>
      <rect x="22" y="34" width="10" height="6" rx="1"></rect>
    </g>
  </symbol>
  <symbol xmlns="http://www.w3.org/2000/svg" viewBox="0 0 48 48" id="Task Manager">
    <defs></defs>
    <title>Task Manager</title>
    <g id="Task_Manager">
      <path d="M45,6H41V8h4a1,1,0,0,1,1,1V34H2V9A1,1,0,0,1,3,8H15V6H3A3,3,0,0,0,0,9V39a3,3,0,0,0,3,3H17.82l-.67,4H16a1,1,0,0,0,0,2H32a1,1,0,0,0,0-2H30.85l-.67-4H45a3,3,0,0,0,3-3V9A3,3,0,0,0,45,6ZM24,37a1,1,0,0,1,0,2A1,1,0,0,1,24,37Zm-4.82,9,.67-4h8.3l.67,4Z"></path>
      <path d="M38,0H18a3,3,0,0,0-3,3v7H10a3,3,0,0,0-3,3V26a3,3,0,0,0,3,3h1c0,2.18-.11,2.52.51,2.87s.66.19,5.77-2.87H30a3,3,0,0,0,3-3V21.37C35.73,23,35.63,23,36,23a1,1,0,0,0,1-1V20h1a3,3,0,0,0,3-3V3A3,3,0,0,0,38,0ZM31,26a1,1,0,0,1-1,1H17c-.38,0-.25,0-4,2.23V28a1,1,0,0,0-1-1H10a1,1,0,0,1-1-1V13a1,1,0,0,1,1-1h5v5a3,3,0,0,0,3,3H30.72C31.12,20.24,31,19.32,31,26Zm8-9a1,1,0,0,1-1,1H36a1,1,0,0,0-1,1v1.23C31.26,18,31.38,18,31,18H18a1,1,0,0,1-1-1V3a1,1,0,0,1,1-1H38a1,1,0,0,1,1,1Z"></path>
      <path d="M34,10.82V9.18l-1.28-.51c-.44-1.58-.71-.45.1-2.33L31.66,5.18l-1.26.54c-1.42-.8-.81.2-1.58-1.72H27.18l-.51,1.28c-1.58.44-.45.71-2.33-.1L23.18,6.34l.54,1.26c-.8,1.42.2.81-1.72,1.58v1.64l1.28.51c.44,1.58.71.45-.1,2.33l1.16,1.16,1.26-.54c1.42.8.81-.2,1.58,1.72h1.64l.51-1.28c1.58-.44.45-.71,2.33.1l1.16-1.16-.54-1.26C33.08,11,32.08,11.59,34,10.82ZM28,12a2,2,0,1,1,2-2A2,2,0,0,1,28,12Z"></path>
      <path d="M27,24H13a1,1,0,0,1,0-2H27A1,1,0,0,1,27,24Z"></path>
    </g>
  </symbol>
  <symbol xmlns="http://www.w3.org/2000/svg" viewBox="0 0 48 48" id="Testing">
    <defs></defs>
    <title>Testing</title>
    <g id="Testing">
      <path d="M28,9V3a3,3,0,0,0-3-3H3A3,3,0,0,0,0,3V45a3,3,0,0,0,3,3H25a3,3,0,0,0,3-3V15H26V42H2V3A1,1,0,0,1,3,2H8a2,2,0,0,0,2,2h8a2,2,0,0,0,2-2h5a1,1,0,0,1,1,1V9ZM12,44h4a1,1,0,0,1,0,2H12A1,1,0,0,1,12,44Z"></path>
      <path d="M45,18H30V40H48V22ZM35.71,30.29A1,1,0,0,1,35,32c-.54,0-.57-.15-2.71-2.29a1,1,0,0,1,0-1.42l2-2a1,1,0,0,1,1.42,1.42L34.41,29Zm5.24-4-2,6a1,1,0,0,1-1.9-.64l2-6A1,1,0,0,1,41,26.32Zm4.76,3.39C43.53,31.89,43.54,32,43,32a1,1,0,0,1-.71-1.71L43.59,29l-1.3-1.29a1,1,0,0,1,1.42-1.42l2,2A1,1,0,0,1,45.71,29.71Z"></path>
      <path d="M12,16H5a1,1,0,0,1-1-1V9A1,1,0,0,1,5,8h7a1,1,0,0,1,1,1v6A1,1,0,0,1,12,16ZM6,14h5V10H6Z"></path>
      <path d="M14,40a6,6,0,1,1,2.34-11.53,1,1,0,0,1-.78,1.84,4,4,0,1,0,2.12,5.26,1,1,0,0,1,1.84.79A6,6,0,0,1,14,40Z"></path>
      <path d="M15,36.07c-.54,0-.57-.15-2.71-2.29a1,1,0,0,1,1.42-1.42L15,33.66l3.29-3.3a1,1,0,0,1,1.42,1.42C15.34,36.15,15.56,36.07,15,36.07Z"></path>
      <path d="M23,26H5a1,1,0,0,1-1-1V19a1,1,0,0,1,1-1H23a1,1,0,0,1,1,1v6A1,1,0,0,1,23,26ZM6,24H22V20H6Z"></path>
      <path d="M39,11H24V9a1,1,0,0,0-1-1H16a1,1,0,0,0-1,1v6a1,1,0,0,0,1,1h7a1,1,0,0,0,1-1V13H38v3h2V12A1,1,0,0,0,39,11ZM22,14H17V10h5Z"></path>
    </g>
  </symbol>
  <symbol xmlns="http://www.w3.org/2000/svg" viewBox="0 0 48 48" id="Validation">
    <defs></defs>
    <title>Validation</title>
    <g id="Validation">
      <path d="M29,10H17a1,1,0,0,1,0-2H29A1,1,0,0,1,29,10Z"></path>
      <path d="M43,22H31a1,1,0,0,1,0-2H43A1,1,0,0,1,43,22Z"></path>
      <path d="M43,26H31a1,1,0,0,1,0-2H43A1,1,0,0,1,43,26Z"></path>
      <path d="M43,14H17a1,1,0,0,1,0-2H43A1,1,0,0,1,43,14Z"></path>
      <path d="M43,18H17a1,1,0,0,1,0-2H43A1,1,0,0,1,43,18Z"></path>
      <path d="M48,9c-.05-.54.43.15-7.24-8.61C40.26-.15,42.38,0,13,0a1,1,0,0,0-1,1V18h2V2H39V7a3,3,0,0,0,3,3h4V40H26.34l.85,2H47a1,1,0,0,0,1-1C48-3.17,48,12.42,48,9ZM42,8a1,1,0,0,1-1-1V3.66L44.8,8Z"></path>
      <path d="M28,35.91V32.09L25,30.9a11.44,11.44,0,0,0-1-2.5l1.26-2.95-2.7-2.7L19.6,24a11.44,11.44,0,0,0-2.5-1l-1.19-3H12.09L10.9,23a11.44,11.44,0,0,0-2.5,1L5.45,22.75l-2.7,2.7L4,28.4a11.44,11.44,0,0,0-1,2.5L0,32.09v3.82L3,37.1a11.44,11.44,0,0,0,1,2.5L2.75,42.55l2.7,2.7L8.4,44a11.44,11.44,0,0,0,2.5,1l1.19,3h3.82l1.19-3a11.44,11.44,0,0,0,2.5-1l2.95,1.26,2.7-2.7L24,39.6a11.44,11.44,0,0,0,1-2.5ZM14,41a7,7,0,1,1,7-7A7,7,0,0,1,14,41Z"></path>
      <path d="M13,37c-.54,0-.57-.15-2.71-2.29a1,1,0,0,1,1.42-1.42L13,34.59l3.29-3.3a1,1,0,0,1,1.42,1.42C13.34,37.08,13.56,37,13,37Z"></path>
      <path d="M35.05,35.68l2-6a1,1,0,0,1,1.9.64l-2,6A1,1,0,0,1,35.05,35.68Z"></path>
      <path d="M41,36a1,1,0,0,1-.71-1.71L41.59,33l-1.3-1.29a1,1,0,0,1,1.42-1.42l2,2a1,1,0,0,1,0,1.42C41.53,35.89,41.54,36,41,36Z"></path>
      <path d="M33,36c-.54,0-.57-.15-2.71-2.29a1,1,0,0,1,0-1.42l2-2a1,1,0,0,1,1.42,1.42L32.41,33l1.3,1.29A1,1,0,0,1,33,36Z"></path>
    </g>
  </symbol>
  <symbol xmlns="http://www.w3.org/2000/svg" viewBox="0 0 48 48" id="Web Bug">
    <defs></defs>
    <title>Web Bug</title>
    <g id="Web_Bug">
      <path d="M30,33h2a1,1,0,0,0,0-2H30V29h2a1,1,0,0,0,0-2H29.82A3,3,0,0,0,28,25.18c0-1.36.13-2.56-1.05-3.85l.94-1.88a1,1,0,0,0-1.79-.9l-.83,1.68a3.58,3.58,0,0,0-2.54,0l-.84-1.68a1,1,0,0,0-1.78.9l.94,1.88C19.86,22.64,20,23.89,20,25.18A3,3,0,0,0,18.18,27H16a1,1,0,0,0,0,2h2v2H16a1,1,0,0,0,0,2h2a10.53,10.53,0,0,0,.09,2H16a1,1,0,0,0,0,2h2.81a6,6,0,0,0,10.38,0H32a1,1,0,0,0,0-2H29.91A10.53,10.53,0,0,0,30,33Zm-7,4.86A4,4,0,0,1,20,34V28a1,1,0,0,1,1-1h2ZM28,34a4,4,0,0,1-3,3.86V27h2a1,1,0,0,1,1,1Z"></path>
      <path d="M45,0H3A3,3,0,0,0,0,3V43a3,3,0,0,0,3,3h8.69a19.64,19.64,0,0,1-2.36-2H3a1,1,0,0,1-1-1V8H46V43a1,1,0,0,1-1,1H38.67a19.64,19.64,0,0,1-2.36,2H45a3,3,0,0,0,3-3V3A3,3,0,0,0,45,0ZM5,5A1,1,0,0,1,5,3,1,1,0,0,1,5,5ZM9,5A1,1,0,0,1,9,3,1,1,0,0,1,9,5Zm4,0a1,1,0,0,1,0-2A1,1,0,0,1,13,5ZM43,5H29a1,1,0,0,1,0-2H43A1,1,0,0,1,43,5Z"></path>
      <path d="M24,10A19,19,0,1,0,43,29,19,19,0,0,0,24,10Zm0,36A17,17,0,1,1,41,29,17,17,0,0,1,24,46Z"></path>
      <path d="M34.63,18.43C26.14,9.13,9,15.17,9,29A15,15,0,0,0,24,44C37.33,44,44,27.84,34.63,18.43ZM24,16a13,13,0,0,1,8.45,3.14L14.14,37.45A13,13,0,0,1,24,16Zm0,26a13,13,0,0,1-8.45-3.14L33.86,20.55A13,13,0,0,1,24,42Z"></path>
    </g>
  </symbol>
  <symbol xmlns="http://www.w3.org/2000/svg" viewBox="0 0 48 48" id="Web Design">
    <defs></defs>
    <title>Web Design</title>
    <g id="Web_Design">
      <path d="M45,6H43V8h2a1,1,0,0,1,1,1V34H2V9A1,1,0,0,1,3,8H5V6H3A3,3,0,0,0,0,9V39a3,3,0,0,0,3,3H17.82l-.67,4H16a1,1,0,0,0,0,2H32a1,1,0,0,0,0-2H30.85l-.67-4H45a3,3,0,0,0,3-3V9A3,3,0,0,0,45,6ZM24,37a1,1,0,0,1,0,2A1,1,0,0,1,24,37Zm-4.82,9,.67-4h8.3l.67,4Z"></path>
      <path d="M11,5A1,1,0,0,1,9,5,1,1,0,0,1,11,5Z"></path>
      <path d="M15,5a1,1,0,0,1-2,0A1,1,0,0,1,15,5Z"></path>
      <path d="M19,5a1,1,0,0,1-2,0A1,1,0,0,1,19,5Z"></path>
      <path d="M39,0H9A4,4,0,0,0,5,4V34H7V10H41V34h2V4A4,4,0,0,0,39,0Zm2,8H7V4A2,2,0,0,1,9,2H39a2,2,0,0,1,2,2Z"></path>
      <polygon points="35.5 29 38.5 29 37 32 35.5 29"></polygon>
      <path d="M39,14v2H35V14a2,2,0,0,1,4,0Z"></path>
      <rect x="35" y="18" width="4" height="9"></rect>
      <path d="M38,6H28a1,1,0,0,1,0-2H38A1,1,0,0,1,38,6Z"></path>
      <path d="M11,13a1,1,0,0,1-2,0A1,1,0,0,1,11,13Z"></path>
      <path d="M18,14H14a1,1,0,0,1,0-2h4A1,1,0,0,1,18,14Z"></path>
      <path d="M32,18H28a1,1,0,0,1,0-2h4A1,1,0,0,1,32,18Z"></path>
      <path d="M11,17a1,1,0,0,1-2,0A1,1,0,0,1,11,17Z"></path>
      <path d="M24,18H14a1,1,0,0,1,0-2H24A1,1,0,0,1,24,18Z"></path>
      <path d="M11,29a1,1,0,0,1-2,0A1,1,0,0,1,11,29Z"></path>
      <path d="M18,30H14a1,1,0,0,1,0-2h4A1,1,0,0,1,18,30Z"></path>
      <path d="M24,30H22a1,1,0,0,1,0-2h2A1,1,0,0,1,24,30Z"></path>
      <path d="M20,26H18a1,1,0,0,1,0-2h2A1,1,0,0,1,20,26Z"></path>
      <path d="M32,26H24a1,1,0,0,1,0-2h8A1,1,0,0,1,32,26Z"></path>
      <path d="M15,21a1,1,0,0,1-2,0A1,1,0,0,1,15,21Z"></path>
      <path d="M30,22H18a1,1,0,0,1,0-2H30A1,1,0,0,1,30,22Z"></path>
      <path d="M15,25a1,1,0,0,1-2,0A1,1,0,0,1,15,25Z"></path>
    </g>
  </symbol>
  <symbol xmlns="http://www.w3.org/2000/svg" viewBox="0 0 48 48" id="Agile">
    <defs></defs>
    <title>Agile</title>
    <g id="Agile">
      <path d="M33,24.5v-3l-2.34-.94a9.4,9.4,0,0,0-.81-2l1-2.32-2.12-2.12-2.32,1a9.4,9.4,0,0,0-2-.81L23.5,12h-3l-.94,2.34a9.4,9.4,0,0,0-2,.81l-2.32-1-2.12,2.12,1,2.32a9.4,9.4,0,0,0-.81,2L11,21.5v3l2.34.94a9.4,9.4,0,0,0,.81,2l-1,2.32,2.12,2.12,2.32-1a9.4,9.4,0,0,0,2,.81L20.5,34h3l.94-2.34a9.4,9.4,0,0,0,2-.81l2.32,1,2.12-2.12-1-2.32a9.4,9.4,0,0,0,.81-2Zm-14.29-.21A1,1,0,0,1,18,26c-.55,0-.58-.16-2.71-2.29a1,1,0,0,1,0-1.42l2-2a1,1,0,0,1,1.42,1.42L17.41,23Zm5.24-4-2,6a1,1,0,0,1-1.9-.64l2-6A1,1,0,0,1,24,20.32Zm4.76,3.39C26.59,25.83,26.55,26,26,26a1,1,0,0,1-.71-1.71L26.59,23l-1.3-1.29a1,1,0,0,1,1.42-1.42l2,2A1,1,0,0,1,28.71,23.71Z"></path>
      <path d="M47.55,38.17l-6-4a1,1,0,0,0-1-.05c-.6.32-.53.79-.53,1.88H35.84C47.13,24,38.71,4,22,4S-3.13,24,8.15,36H1a1,1,0,0,0-.89,1.45L.88,39,.11,40.55A1,1,0,0,0,1,42H40v1a1,1,0,0,0,1,1c.43,0,.1.13,6.55-4.17A1,1,0,0,0,47.55,38.17ZM22,6a17,17,0,0,1,0,34H12.62c.54-1.09.5-1,0-2H22a15,15,0,1,0-7.45-2H11.07C-1,25.83,6.15,6,22,6ZM7.62,40c.55-1.11.47-1,0-2h2.76l.5,1-.5,1ZM22,36A13,13,0,1,1,35,23,13,13,0,0,1,22,36ZM2.62,38H5.38l.5,1-.5,1H2.62C3.17,38.89,3.09,39,2.62,38ZM42,41.13A1,1,0,0,0,41,40H30.44a18.63,18.63,0,0,0,3.2-2H41a1,1,0,0,0,1-1c0-.2-.4-.4,3.2,2Z"></path>
    </g>
  </symbol>
  <symbol xmlns="http://www.w3.org/2000/svg" viewBox="0 0 48 48" id="Algorithm">
    <defs></defs>
    <title>Algorithm</title>
    <g id="Algorithm">
      <path d="M30,0H15V22H33V4ZM20.71,12.29A1,1,0,0,1,20,14c-.54,0-.57-.15-2.71-2.29a1,1,0,0,1,0-1.42l2-2a1,1,0,0,1,1.42,1.42L19.41,11Zm5.24-4-2,6a1,1,0,0,1-1.9-.64l2-6A1,1,0,0,1,26,8.32Zm4.76,3.39C28.53,13.89,28.54,14,28,14a1,1,0,0,1-.71-1.71L28.59,11l-1.3-1.29a1,1,0,0,1,1.42-1.42l2,2A1,1,0,0,1,30.71,11.71Z"></path>
      <path d="M32,41V39l-2.26-.75a6.68,6.68,0,0,0-.44-1.07l1.06-2.13L29,33.64,26.82,34.7a6.68,6.68,0,0,0-1.07-.44L25,32H23l-.75,2.26a6.68,6.68,0,0,0-1.07.44l-2.13-1.06-1.41,1.41,1.06,2.13a6.68,6.68,0,0,0-.44,1.07L16,39v2l2.26.75a6.68,6.68,0,0,0,.44,1.07L17.64,45l1.41,1.41,2.13-1.06a6.68,6.68,0,0,0,1.07.44L23,48h2l.75-2.26a6.68,6.68,0,0,0,1.07-.44L29,46.36,30.36,45,29.3,42.82a6.68,6.68,0,0,0,.44-1.07Zm-8,2a3,3,0,1,1,3-3A3,3,0,0,1,24,43Z"></path>
      <path d="M33.17,28H25v2H23V28H14.83a3,3,0,0,0,0-2H23V24h2v2h8.17A3,3,0,0,0,33.17,28Z"></path>
      <path d="M10,31c-6.49,0-6.43.16-6.83-.45l-2-3a1,1,0,0,1,0-1.1C3.29,23.26,3.3,23,4,23c6.49,0,6.43-.16,6.83.45l2,3a1,1,0,0,1,0,1.1C10.71,30.74,10.7,31,10,31ZM4.54,29H9.46l1.34-2L9.46,25H4.54L3.2,27Z"></path>
      <path d="M44,31c-6.49,0-6.43.16-6.83-.45l-2-3a1,1,0,0,1,0-1.1C37.29,23.26,37.3,23,38,23c6.49,0,6.43-.16,6.83.45l2,3a1,1,0,0,1,0,1.1C44.71,30.74,44.7,31,44,31Zm-5.47-2h4.93l1.34-2-1.34-2H38.53L37.2,27Z"></path>
      <path d="M8,12v5.59l1.12-1.13a1,1,0,0,1,1.42,1.42c-4.2,4.2-2.95,4.13-7.08,0a1,1,0,0,1,1.42-1.42L6,17.59V11a1,1,0,0,1,1-1h6v2Z"></path>
      <path d="M44.54,17.88c-4.2,4.2-2.95,4.13-7.08,0a1,1,0,0,1,1.42-1.42L40,17.59V12H35V10h6a1,1,0,0,1,1,1v6.59l1.12-1.13A1,1,0,0,1,44.54,17.88Z"></path>
      <path d="M13,42H12V38a1,1,0,0,0-1-1H8V33H6v4H3a1,1,0,0,0-1,1v4H1a1,1,0,0,0-1,1v4a1,1,0,0,0,1,1H5a1,1,0,0,0,1-1V43a1,1,0,0,0-1-1H4V39h6v3H9a1,1,0,0,0-1,1v4a1,1,0,0,0,1,1h4a1,1,0,0,0,1-1V43A1,1,0,0,0,13,42ZM4,46H2V44H4Zm8,0H10V44h2Z"></path>
      <path d="M47,42H46V38a1,1,0,0,0-1-1H42V33H40v4H37a1,1,0,0,0-1,1v4H35a1,1,0,0,0-1,1v4a1,1,0,0,0,1,1h4a1,1,0,0,0,1-1V43a1,1,0,0,0-1-1H38V39h6v3H43a1,1,0,0,0-1,1v4a1,1,0,0,0,1,1h4a1,1,0,0,0,1-1V43A1,1,0,0,0,47,42Zm-9,4H36V44h2Zm8,0H44V44h2Z"></path>
    </g>
  </symbol>
  <symbol xmlns="http://www.w3.org/2000/svg" viewBox="0 0 48 48" id="API">
    <defs></defs>
    <title>API</title>
    <g id="API">
      <path d="M47,40H1a1,1,0,0,0-1,1v2a5,5,0,0,0,5,5H43a5,5,0,0,0,5-5V41A1,1,0,0,0,47,40Zm-1,3a3,3,0,0,1-3,3H5a3,3,0,0,1-3-3V42H17a2,2,0,0,0,2,2H29a2,2,0,0,0,2-2H46Z"></path>
      <path d="M42,8c-6.44,0-5.53-.06-5,.15V10h5a1,1,0,0,1,1,1V40h2V11A3,3,0,0,0,42,8ZM3,11V40H5V11a1,1,0,0,1,1-1h5V8.15C11.57,7.92,12.29,8,6,8A3,3,0,0,0,3,11Z"></path>
      <path d="M40,12H37v1.85c-.53.21-.91.15,2,.15V36H9V14c3,0,2.49.05,2-.15V12H8a1,1,0,0,0-1,1V37a1,1,0,0,0,1,1H40a1,1,0,0,0,1-1V13A1,1,0,0,0,40,12Z"></path>
      <path d="M25,24H23a1,1,0,0,0-1,1v8a1,1,0,0,0,2,0V30h1a3,3,0,0,0,0-6Zm0,4H24V26h1A1,1,0,0,1,25,28Z"></path>
      <path d="M17.89,24.55a1,1,0,0,0-1.78,0l-2,4C14,28.84,14,28.69,14,33a1,1,0,0,0,2,0V31h2v2a1,1,0,0,0,2,0V29C20,28.66,20.05,28.87,17.89,24.55ZM17,27.24,17.88,29H16.12Z"></path>
      <path d="M33,32V26a1,1,0,0,0,0-2H31a1,1,0,0,0,0,2v6a1,1,0,0,0,0,2h2A1,1,0,0,0,33,32Z"></path>
      <path d="M35,12.5v-3l-2.34-.94a9.4,9.4,0,0,0-.81-2l1-2.32L30.72,2.16l-2.32,1a9.4,9.4,0,0,0-2-.81L25.5,0h-3l-.94,2.34a9.4,9.4,0,0,0-2,.81l-2.32-1L15.16,4.28l1,2.32a9.4,9.4,0,0,0-.81,2L13,9.5v3l2.34.94a9.4,9.4,0,0,0,.81,2l-1,2.32,2.12,2.12,2.32-1a9.4,9.4,0,0,0,2,.81L22.5,22h3l.94-2.34a9.4,9.4,0,0,0,2-.81l2.32,1,2.12-2.12-1-2.32a9.4,9.4,0,0,0,.81-2Zm-14.29-.21A1,1,0,0,1,20,14c-.55,0-.58-.16-2.71-2.29a1,1,0,0,1,0-1.42l2-2a1,1,0,0,1,1.42,1.42L19.41,11Zm5.24-4-2,6a1,1,0,0,1-1.9-.64l2-6A1,1,0,0,1,26,8.32Zm4.76,3.39C28.59,13.83,28.55,14,28,14a1,1,0,0,1-.71-1.71L28.59,11l-1.3-1.29a1,1,0,0,1,1.42-1.42l2,2A1,1,0,0,1,30.71,11.71Z"></path>
    </g>
  </symbol>
  <symbol xmlns="http://www.w3.org/2000/svg" viewBox="0 0 48 48" id="Authorize">
    <defs></defs>
    <title>Authorize</title>
    <g id="Authorize">
      <path d="M48,11c0-.5.36.13-8.21-10.58C39.51-.17,40.63,0,11,0a1,1,0,0,0-1,1V20.08a6.1,6.1,0,0,1,2,0V2H38V9a3,3,0,0,0,3,3h5V46H23.83a3.21,3.21,0,0,1-2.37,2H47a1,1,0,0,0,1-1C48,44.69,48,8.67,48,11Z"></path>
      <path d="M23.05,12.68l2-6a1,1,0,0,1,1.9.64l-2,6A1,1,0,0,1,23.05,12.68Z"></path>
      <path d="M29,13a1,1,0,0,1-.71-1.71L29.59,10l-1.3-1.29a1,1,0,0,1,1.42-1.42l2,2a1,1,0,0,1,0,1.42C29.53,12.89,29.54,13,29,13Z"></path>
      <path d="M21,13c-.54,0-.57-.15-2.71-2.29a1,1,0,0,1,0-1.42l2-2a1,1,0,0,1,1.42,1.42L20.41,10l1.3,1.29A1,1,0,0,1,21,13Z"></path>
      <path d="M42,19H16a1,1,0,0,1,0-2H42A1,1,0,0,1,42,19Z"></path>
      <path d="M42,23H20a1,1,0,0,1,0-2H42A1,1,0,0,1,42,23Z"></path>
      <circle cx="33" cy="35" r="4"></circle>
      <path d="M41.56,34.07a3,3,0,0,0-1.09-3.35,3,3,0,0,1-1.09-1.5,3,3,0,0,0-2.85-2.07,3,3,0,0,1-1.77-.58,3,3,0,0,0-3.52,0,3,3,0,0,1-1.77.58,3,3,0,0,0-2.85,2.07,3,3,0,0,1-1.09,1.5,3,3,0,0,0-1.09,3.35,3,3,0,0,1,0,1.86,3,3,0,0,0,1.09,3.35,3,3,0,0,1,1.09,1.5,3,3,0,0,0,2.85,2.07,3,3,0,0,1,1.77.58,3,3,0,0,0,3.52,0,3,3,0,0,1,1.77-.58,3,3,0,0,0,2.85-2.07,3,3,0,0,1,1.09-1.5,3,3,0,0,0,1.09-3.35A3,3,0,0,1,41.56,34.07ZM33,41a6,6,0,1,1,6-6A6,6,0,0,1,33,41Z"></path>
      <path d="M2,45H20a0,0,0,0,1,0,0v1a2,2,0,0,1-2,2H4a2,2,0,0,1-2-2V45A0,0,0,0,1,2,45Z"></path>
      <path d="M19,40H16V39a3,3,0,0,0-2-2.81c.11-5.31,2-6.62,2-9.19a5,5,0,0,0-5-5,5.08,5.08,0,0,0-4.57,7.18,18.06,18.06,0,0,1,1.55,7A3,3,0,0,0,6,39v1H3a3,3,0,0,0-3,3v2a1,1,0,0,0,1,1H21a1,1,0,0,0,1-1V43A3,3,0,0,0,19,40ZM11,24a3.08,3.08,0,0,1,2.74,4.37A19.93,19.93,0,0,0,12,36H10c-.14-5.19-2-7.34-2-8.85A3,3,0,0,1,11,24ZM8,39a1,1,0,0,1,1-1h4a1,1,0,0,1,1,1v1H8Zm12,5H2V43a1,1,0,0,1,1-1H19a1,1,0,0,1,1,1Z"></path>
      <polygon points="43 33 42 35 43 37 23 37 24 35 23 33 43 33"></polygon>
    </g>
  </symbol>
  <symbol xmlns="http://www.w3.org/2000/svg" viewBox="0 0 48 48" id="Backend Code">
    <defs></defs>
    <title>Backend Code</title>
    <g id="Backend_Code">
      <path d="M45,0H3A3,3,0,0,0,0,3V45a3,3,0,0,0,3,3H45a3,3,0,0,0,3-3V3A3,3,0,0,0,45,0ZM29,3H43a1,1,0,0,1,0,2H29A1,1,0,0,1,29,3ZM13,3a1,1,0,0,1,0,2A1,1,0,0,1,13,3ZM9,3A1,1,0,0,1,9,5,1,1,0,0,1,9,3ZM5,3A1,1,0,0,1,5,5,1,1,0,0,1,5,3ZM46,45a1,1,0,0,1-1,1H3a1,1,0,0,1-1-1V8H46Z"></path>
      <path d="M15,12H5a1,1,0,0,1,0-2H15A1,1,0,0,1,15,12Z"></path>
      <path d="M29,16H5a1,1,0,0,1,0-2H29A1,1,0,0,1,29,16Z"></path>
      <path d="M29,20H5a1,1,0,0,1,0-2H29A1,1,0,0,1,29,20Z"></path>
      <path d="M23,28H11a1,1,0,0,1,0-2H23A1,1,0,0,1,23,28Z"></path>
      <path d="M29,28H27a1,1,0,0,1,0-2h2A1,1,0,0,1,29,28Z"></path>
      <path d="M41,28H33a1,1,0,0,1,0-2h8A1,1,0,0,1,41,28Z"></path>
      <path d="M23,40H11a1,1,0,0,1,0-2H23A1,1,0,0,1,23,40Z"></path>
      <path d="M29,40H27a1,1,0,0,1,0-2h2A1,1,0,0,1,29,40Z"></path>
      <path d="M41,44H39a1,1,0,0,1,0-2h2A1,1,0,0,1,41,44Z"></path>
      <path d="M41,32H39a1,1,0,0,1,0-2h2A1,1,0,0,1,41,32Z"></path>
      <path d="M41,40H33a1,1,0,0,1,0-2h8A1,1,0,0,1,41,40Z"></path>
      <path d="M35,32H11a1,1,0,0,1,0-2H35A1,1,0,0,1,35,32Z"></path>
      <path d="M16,24H8a1,1,0,0,1,0-2h8A1,1,0,0,1,16,24Z"></path>
      <path d="M35,44H11a1,1,0,0,1,0-2H35A1,1,0,0,1,35,44Z"></path>
      <path d="M16,36H8a1,1,0,0,1,0-2h8A1,1,0,0,1,16,36Z"></path>
    </g>
  </symbol>
  <symbol xmlns="http://www.w3.org/2000/svg" viewBox="0 0 48 48" id="Bug Virus">
    <defs></defs>
    <title>Bug Virus</title>
    <g id="Bug_Virus">
      <path d="M17,17c-.14,0,.28.08-5.2-1a1,1,0,0,1-.79-.82l-.93-5.57L7.45,7.83a1,1,0,0,1,1.1-1.66l3,2c.49.32.35.18,1.32,6L17.2,15A1,1,0,0,1,17,17Z"></path>
      <path d="M31,17c.14,0-.28.08,5.2-1a1,1,0,0,0,.79-.82l.93-5.57,2.63-1.76a1,1,0,0,0-1.1-1.66l-3,2c-.49.32-.35.18-1.32,6L30.8,15A1,1,0,0,0,31,17Z"></path>
      <path d="M19.81,7.46,18.59,3.2A1.66,1.66,0,0,0,17,2a1,1,0,0,1-1-1c0-1.82,3.73-1.08,4.51,1.65l1.22,4.27A1,1,0,0,1,19.81,7.46Z"></path>
      <path d="M26.27,6.92l1.22-4.27A3.67,3.67,0,0,1,31,0a1,1,0,0,1,0,2,1.66,1.66,0,0,0-1.59,1.2L28.19,7.46A1,1,0,0,1,26.27,6.92Z"></path>
      <path d="M20,46.87a1,1,0,0,1,1.06-1.7,5.62,5.62,0,0,0,5.84,0A1,1,0,0,1,28,46.87,7.56,7.56,0,0,1,20,46.87Z"></path>
      <path d="M.68,32.05l2.66-.88,4.81-7.7a1,1,0,0,1,1-.45l3.62.73a1,1,0,0,1-.4,2l-2.94-.59L4.85,32.53c-.27.43-.35.36-3.53,1.42A1,1,0,0,1,.68,32.05Z"></path>
      <path d="M47,34c-.23,0-.08,0-3.32-1-.49-.16-.18.14-5.16-7.83l-2.94.59a1,1,0,0,1-.4-2L38.8,23a1,1,0,0,1,1.05.45l4.81,7.7,2.66.88A1,1,0,0,1,47,34Z"></path>
      <path d="M3.45,46.17l2.61-1.75,1-7.54a1,1,0,0,1,.67-.83l4-1.33a1,1,0,0,1,.64,1.9L8.91,37.75,8,45.12c-.08.65-.35.66-3.44,2.71A1,1,0,0,1,3.45,46.17Z"></path>
      <path d="M44,48c-.41,0-.28,0-3.56-2.17-.52-.35-.37-.23-1.35-8.08l-3.41-1.13a1,1,0,0,1,.63-1.9l4,1.33a1,1,0,0,1,.68.83l.95,7.54,2.61,1.75A1,1,0,0,1,44,48Z"></path>
      <path d="M29.83,34.66l-4.38-8.77a1.62,1.62,0,0,0-2.9,0l-4.38,8.77A1.62,1.62,0,0,0,19.62,37h8.76A1.62,1.62,0,0,0,29.83,34.66ZM24,35a1,1,0,0,1,0-2A1,1,0,0,1,24,35Zm1-4a1,1,0,0,1-2,0V29a1,1,0,0,1,2,0Z"></path>
      <path d="M33.8,19.4c-.44-.57.68-.4-18.8-.4a1,1,0,0,0-.8.4A16.12,16.12,0,0,0,11,29c0,6-.58,10.69,3.85,15.86C17.41,47.85,17.38,48,18,48s.21.25,6-5.59C29.86,48.28,29.39,48,30,48s.59-.2,3.11-3.14C37.6,39.67,37,34.66,37,29A16.12,16.12,0,0,0,33.8,19.4ZM35,34.45c0,5.48-2.74,8.37-5.06,11.08L25,40.59V39H23v1.59l-4.94,4.94-1.69-2C12.45,39,13,34.65,13,29a14.12,14.12,0,0,1,2.51-8H23v2.14a3.67,3.67,0,0,1,2,0V21h7.49C35.49,25.32,35,29,35,34.45Z"></path>
      <path d="M31,13.55V13a7,7,0,0,0-7-7c-3.56,0-7,2.65-7,7.55A4,4,0,0,0,15,17H33A4,4,0,0,0,31,13.55ZM24,8a5,5,0,0,1,5,5H19A5,5,0,0,1,24,8Z"></path>
    </g>
  </symbol>
  <symbol xmlns="http://www.w3.org/2000/svg" viewBox="0 0 48 48" id="C sharp">
    <defs></defs>
    <title>C sharp</title>
    <g id="C_sharp">
      <path d="M45,11c0-.5.36.13-8.21-10.58C36.49-.2,36.67,0,8,0A1,1,0,0,0,7,1V14H9V2H35V9a3,3,0,0,0,3,3h5V46H9V42H7v5a1,1,0,0,0,1,1H44a1,1,0,0,0,1-1C45-2.67,45,14.85,45,11Z"></path>
      <path d="M31,25h-.72l.19-.76a1,1,0,0,0-1.94-.48L28.22,25H26.28l.19-.76a1,1,0,0,0-1.94-.48L24.22,25H23a1,1,0,0,0,0,2h.72l-.5,2H22a1,1,0,0,0,0,2h.72l-.19.76a1,1,0,0,0,1.94.48L24.78,31h1.94l-.19.76a1,1,0,0,0,1.94.48L28.78,31H30a1,1,0,0,0,0-2h-.72l.5-2H31A1,1,0,0,0,31,25Zm-3.78,4H25.28l.5-2h1.94Z"></path>
      <path d="M8,30V26a6,6,0,0,1,11.5-2.41,1,1,0,0,1-1.82.82A4,4,0,0,0,10,26v4a4,4,0,0,0,7.68,1.59,1,1,0,0,1,1.82.82A6,6,0,0,1,8,30Z"></path>
      <path d="M34,40H6a1,1,0,0,1-.94-.66c-4.35-12-4.18-11.2-4-11.68l4-11A1,1,0,0,1,6,16H34a1,1,0,0,1,.94.66c4.35,12,4.18,11.2,4,11.68l-4,11A1,1,0,0,1,34,40ZM6.7,38H33.3l3.64-10L33.3,18H6.7L3.06,28Z"></path>
    </g>
  </symbol>
  <symbol xmlns="http://www.w3.org/2000/svg" viewBox="0 0 48 48" id="Cloud Coding">
    <defs></defs>
    <title>Cloud Coding</title>
    <g id="Cloud_Coding">
      <path d="M41,35.26V33.07c8.1-4,5.77-16.14-3.1-17a1,1,0,0,1,.2-2c.21,0,.42.07.63.1-2.68-14-21.68-16.62-28.1-3.93.43-.08.85-.14,1.29-.18a1,1,0,0,1,.16,2C1.6,12.9-1.7,26.61,7,32.21v2.33A13,13,0,0,1,8.12,11,17,17,0,0,1,40.85,14.7C50.33,18.21,50.36,31.64,41,35.26Z"></path>
      <path d="M36,20H12a3,3,0,0,0-3,3V45a3,3,0,0,0,3,3H36a3,3,0,0,0,3-3V23A3,3,0,0,0,36,20ZM26,23h8a1,1,0,0,1,0,2H26A1,1,0,0,1,26,23Zm-8,0a1,1,0,0,1,0,2A1,1,0,0,1,18,23Zm-4,0a1,1,0,0,1,0,2A1,1,0,0,1,14,23ZM37,45a1,1,0,0,1-1,1H12a1,1,0,0,1-1-1V28H37Z"></path>
      <path d="M22.05,39.68l2-6a1,1,0,0,1,1.9.64l-2,6A1,1,0,0,1,22.05,39.68Z"></path>
      <path d="M28,40a1,1,0,0,1-.71-1.71L28.59,37l-1.3-1.29a1,1,0,0,1,1.42-1.42l2,2a1,1,0,0,1,0,1.42C28.53,39.89,28.54,40,28,40Z"></path>
      <path d="M20,40c-.54,0-.57-.15-2.71-2.29a1,1,0,0,1,0-1.42l2-2a1,1,0,0,1,1.42,1.42L19.41,37l1.3,1.29A1,1,0,0,1,20,40Z"></path>
    </g>
  </symbol>
  <symbol xmlns="http://www.w3.org/2000/svg" viewBox="0 0 48 48" id="Code {rotection">
    <defs></defs>
    <title>Code {rotection</title>
    <g id="Code_rotection">
      <path d="M45,0H3A3,3,0,0,0,0,3V43a3,3,0,0,0,3,3H23.24a19.36,19.36,0,0,1-2-2H3a1,1,0,0,1-1-1V8H46V43a1,1,0,0,1-1,1H40.81a19.36,19.36,0,0,1-2.05,2H45a3,3,0,0,0,3-3V3A3,3,0,0,0,45,0ZM5,5A1,1,0,0,1,5,3,1,1,0,0,1,5,5ZM9,5A1,1,0,0,1,9,3,1,1,0,0,1,9,5Zm4,0a1,1,0,0,1,0-2A1,1,0,0,1,13,5ZM43,5H29a1,1,0,0,1,0-2H43A1,1,0,0,1,43,5Z"></path>
      <path d="M30.68,48A18.53,18.53,0,0,1,18,30.35c0-8-.16-7.78.44-8.18C22.17,19.68,25.78,18,31,18s8.76,1.64,12.56,4.17A1,1,0,0,1,44,23v7.35A18.53,18.53,0,0,1,31.32,48,1,1,0,0,1,30.68,48ZM20,23.53v6.82A16.53,16.53,0,0,0,31,45.94,16.53,16.53,0,0,0,42,30.35V23.53C34.81,18.74,27.05,18.83,20,23.53Z"></path>
      <path d="M30,33v2a1,1,0,0,0,2,0V33A1,1,0,0,0,30,33Z"></path>
      <path d="M31,26a2,2,0,0,0-2,2v2h4V28A2,2,0,0,0,31,26Z"></path>
      <path d="M22,24.61v5.74A14.53,14.53,0,0,0,31,43.8a14.53,14.53,0,0,0,9-13.45V24.61A16.82,16.82,0,0,0,22,24.61ZM36,37a1,1,0,0,1-1,1H27a1,1,0,0,1-1-1V31a1,1,0,0,1,1-1V28a4,4,0,0,1,8,0v2a1,1,0,0,1,1,1Z"></path>
      <path d="M11,33H5a1,1,0,0,1,0-2h6A1,1,0,0,1,11,33Z"></path>
      <path d="M15,37H5a1,1,0,0,1,0-2H15A1,1,0,0,1,15,37Z"></path>
      <path d="M15,41H5a1,1,0,0,1,0-2H15A1,1,0,0,1,15,41Z"></path>
      <path d="M9.05,17.68l2-6a1,1,0,0,1,1.9.64l-2,6A1,1,0,0,1,9.05,17.68Z"></path>
      <path d="M15,18a1,1,0,0,1-.71-1.71L15.59,15l-1.3-1.29a1,1,0,0,1,1.42-1.42l2,2a1,1,0,0,1,0,1.42C15.53,17.89,15.54,18,15,18Z"></path>
      <path d="M7,18c-.54,0-.57-.15-2.71-2.29a1,1,0,0,1,0-1.42l2-2a1,1,0,0,1,1.42,1.42L6.41,15l1.3,1.29A1,1,0,0,1,7,18Z"></path>
    </g>
  </symbol>
  <symbol xmlns="http://www.w3.org/2000/svg" viewBox="0 0 48 48" id="Code Development">
    <defs></defs>
    <title>Code Development</title>
    <g id="Code_Development">
      <path d="M45,0H3A3,3,0,0,0,0,3V43a3,3,0,0,0,3,3H22.2c-1.24-1.24-1.47-1.41-1.75-2H3a1,1,0,0,1-1-1V8H46V43a1,1,0,0,1-1,1H43.55c-.29.62-.63.88-1.75,2H45a3,3,0,0,0,3-3V3A3,3,0,0,0,45,0ZM5,5A1,1,0,0,1,5,3,1,1,0,0,1,5,5ZM9,5A1,1,0,0,1,9,3,1,1,0,0,1,9,5Zm4,0a1,1,0,0,1,0-2A1,1,0,0,1,13,5ZM43,5H29a1,1,0,0,1,0-2H43A1,1,0,0,1,43,5Z"></path>
      <path d="M43.37,33.57l-1.9-.76A9.83,9.83,0,0,0,41,31.55l.81-1.87a1,1,0,0,0-.21-1.1c-3-3-2.11-2.82-5.1-1.53a9.83,9.83,0,0,0-1.26-.52l-.76-1.9A1,1,0,0,0,33.5,24h-3a1,1,0,0,0-.93.63l-.76,1.9a9.83,9.83,0,0,0-1.26.52l-1.87-.81a1,1,0,0,0-1.1.21c-3,3-2.82,2.11-1.53,5.1a9.83,9.83,0,0,0-.52,1.26l-1.9.76a1,1,0,0,0-.63.93v3a1,1,0,0,0,.63.93l1.9.76a9.83,9.83,0,0,0,.52,1.26l-.81,1.87a1,1,0,0,0,.21,1.1c3,3,2.11,2.81,5.1,1.53a9.83,9.83,0,0,0,1.26.52l.76,1.9a1,1,0,0,0,.93.63h3a1,1,0,0,0,.93-.63l.76-1.9A9.83,9.83,0,0,0,36.45,45l1.87.81a1,1,0,0,0,1.1-.21c3-3,2.82-2.11,1.53-5.1a9.83,9.83,0,0,0,.52-1.26l1.9-.76A1,1,0,0,0,44,37.5v-3A1,1,0,0,0,43.37,33.57ZM42,36.82c-1.53.62-2.12.7-2.31,1.35-.81,2.89-1.42,1.09,0,4.32l-1.16,1.16c-1.5-.64-2-1-2.58-.68-2.63,1.48-1.77-.25-3.09,3H31.18c-.62-1.53-.7-2.12-1.35-2.31-2.89-.81-1.09-1.42-4.32,0l-1.16-1.16c.65-1.53,1-2,.68-2.58-1.48-2.63.25-1.77-3-3.09V35.18c1.53-.62,2.12-.7,2.31-1.35.81-2.9,1.42-1.08,0-4.32l1.16-1.16c1.53.65,2,1,2.58.68,2.63-1.48,1.77.25,3.09-3h1.64c.62,1.53.7,2.12,1.35,2.31,2.89.81,1.09,1.42,4.32,0l1.16,1.16c-.65,1.53-1,2-.68,2.58,1.48,2.63-.26,1.77,3,3.09Z"></path>
      <path d="M29.81,30.41a1,1,0,0,0,.72,1.86,4,4,0,0,1,5.2,5.2,1,1,0,0,0,1.86.72A6,6,0,0,0,29.81,30.41Z"></path>
      <path d="M33.47,39.73a4,4,0,0,1-5.2-5.2,1,1,0,0,0-1.86-.72,6,6,0,0,0,7.78,7.78A1,1,0,0,0,33.47,39.73Z"></path>
      <path d="M6,11a1,1,0,0,1-2,0A1,1,0,0,1,6,11Z"></path>
      <path d="M13,12H9a1,1,0,0,1,0-2h4A1,1,0,0,1,13,12Z"></path>
      <path d="M27,16H23a1,1,0,0,1,0-2h4A1,1,0,0,1,27,16Z"></path>
      <path d="M6,15a1,1,0,0,1-2,0A1,1,0,0,1,6,15Z"></path>
      <path d="M19,16H9a1,1,0,0,1,0-2H19A1,1,0,0,1,19,16Z"></path>
      <path d="M6,27a1,1,0,0,1-2,0A1,1,0,0,1,6,27Z"></path>
      <path d="M13,28H9a1,1,0,0,1,0-2h4A1,1,0,0,1,13,28Z"></path>
      <path d="M19,28H17a1,1,0,0,1,0-2h2A1,1,0,0,1,19,28Z"></path>
      <path d="M15,24H13a1,1,0,0,1,0-2h2A1,1,0,0,1,15,24Z"></path>
      <path d="M27,24H19a1,1,0,0,1,0-2h8A1,1,0,0,1,27,24Z"></path>
      <path d="M10,19a1,1,0,0,1-2,0A1,1,0,0,1,10,19Z"></path>
      <path d="M25,20H13a1,1,0,0,1,0-2H25A1,1,0,0,1,25,20Z"></path>
      <path d="M10,23a1,1,0,0,1-2,0A1,1,0,0,1,10,23Z"></path>
      <path d="M17,36.82V35.18l-1.28-.51c-.44-1.58-.71-.45.1-2.33l-1.16-1.16-1.26.54c-1.42-.8-.81.2-1.58-1.72H10.18l-.51,1.28c-1.58.44-.45.71-2.33-.1L6.18,32.34l.54,1.26c-.8,1.42.2.81-1.72,1.58v1.64l1.28.51c.44,1.58.71.45-.1,2.33l1.16,1.16,1.26-.54c1.42.8.81-.2,1.58,1.72h1.64l.51-1.28c1.58-.44.45-.71,2.33.1l1.16-1.16-.54-1.26C16.08,37,15.08,37.59,17,36.82ZM11,38a2,2,0,1,1,2-2A2,2,0,0,1,11,38Z"></path>
    </g>
  </symbol>
  <symbol xmlns="http://www.w3.org/2000/svg" viewBox="0 0 48 48" id="coding">
    <defs></defs>
    <title>coding</title>
    <g id="coding">
      <path d="M46,34H22a2,2,0,0,0-2,2V46a2,2,0,0,0,2,2H46a2,2,0,0,0,2-2V36A2,2,0,0,0,46,34ZM31,36h2v2H31Zm0,4h2v2H31Zm-4-4h2v2H27Zm-4,0h2v2H23Zm0,4h2v2H23Zm4,6H23V44h4Zm0-6h2v2H27Zm10,6H29V44h8Zm0-4H35V40h2Zm0-4H35V36h2Zm4,8H39V44h2Zm0-4H39V40h2Zm0-4H39V36h2Zm4,8H43V44h2Zm0-4H43V40h2Zm0-4H43V36h2Z"></path>
      <path d="M6,5A1,1,0,0,1,4,5,1,1,0,0,1,6,5Z"></path>
      <path d="M10,5A1,1,0,0,1,8,5,1,1,0,0,1,10,5Z"></path>
      <path d="M14,5a1,1,0,0,1-2,0A1,1,0,0,1,14,5Z"></path>
      <path d="M40,0H4A4,4,0,0,0,0,4V38a4,4,0,0,0,4,4H18V40H4a2,2,0,0,1-2-2V10H42V32h2V4A4,4,0,0,0,40,0Zm2,8H2V4A2,2,0,0,1,4,2H40a2,2,0,0,1,2,2Z"></path>
      <path d="M39,6H27a1,1,0,0,1,0-2H39A1,1,0,0,1,39,6Z"></path>
      <path d="M18.06,29.65l6-16a1,1,0,0,1,1.88.7l-6,16A1,1,0,0,1,18.06,29.65Z"></path>
      <path d="M15,29c-.6,0-.29.13-6.71-6.29a1,1,0,0,1,0-1.42l6-6a1,1,0,0,1,1.42,1.42L10.41,22l5.3,5.29A1,1,0,0,1,15,29Z"></path>
      <path d="M29,29a1,1,0,0,1-.71-1.71L33.59,22l-5.3-5.29a1,1,0,0,1,1.42-1.42l6,6a1,1,0,0,1,0,1.42C29.11,29.31,29.57,29,29,29Z"></path>
    </g>
  </symbol>
  <symbol xmlns="http://www.w3.org/2000/svg" viewBox="0 0 48 48" id="Core Processore">
    <defs></defs>
    <title>Core Processore</title>
    <g id="Core_Processore">
      <path d="M47,21a1,1,0,0,0,0-2H44V17h2a1,1,0,0,0,0-2H44V13h3a1,1,0,0,0,0-2H44V10a4,4,0,0,0-4-4H39V3a1,1,0,0,0-2,0V6H35V4a1,1,0,0,0-2,0V6H31V3a1,1,0,0,0-2,0V6H26a1,1,0,0,0-1,1v6a1,1,0,0,0,1,1h.82c1.34,3.33.47,1.53,3.09,3,.56.31.92,0,2.58-.68l1.16,1.16c-1.36,3.2-.79,1.44.05,4.32.18.68.81.75,2.3,1.35v1.64c-3.32,1.34-1.52.46-3,3.09-.3.54-.07.82.68,2.58l-1.16,1.16c-3.25-1.38-1.43-.76-4.32,0-.63.19-.66.6-1.35,2.31H26a1,1,0,0,0-1,1v6a1,1,0,0,0,1,1h3v3a1,1,0,0,0,2,0V42h2v2a1,1,0,0,0,2,0V42h2v3a1,1,0,0,0,2,0V42h1a4,4,0,0,0,4-4V37h3a1,1,0,0,0,0-2H44V33h2a1,1,0,0,0,0-2H44V29h3a1,1,0,0,0,0-2H44V25h2a1,1,0,0,0,0-2H44V21ZM42,38a2,2,0,0,1-2,2H27V38H39a1,1,0,0,0,1-1V11a1,1,0,0,0-1-1H27V8H40a2,2,0,0,1,2,2Z"></path>
      <path d="M29.73,25.47a4,4,0,0,0-5.2-5.2,1,1,0,0,1-.72-1.86,6,6,0,0,1,7.78,7.78A1,1,0,0,1,29.73,25.47Z"></path>
      <path d="M20.41,21.81a1,1,0,0,1,1.86.72,4,4,0,0,0,5.2,5.2,1,1,0,0,1,.72,1.86A6,6,0,0,1,20.41,21.81Z"></path>
      <path d="M11,31c-3.81,0-5.1-5-3-5a1,1,0,0,1,1,1,2,2,0,0,0,2,2A1,1,0,0,1,11,31Z"></path>
      <path d="M9,22c-2.1,0-.81-5,3-5a1,1,0,0,1,0,2,2,2,0,0,0-2,2A1,1,0,0,1,9,22Z"></path>
      <path d="M13.5,39a1,1,0,0,1,0-2,2,2,0,0,0,2-2,1,1,0,0,1,1-1C18.6,34,17.31,39,13.5,39Z"></path>
      <path d="M35.47,20.81A9.83,9.83,0,0,0,35,19.55l.81-1.87a1,1,0,0,0-.21-1.1c-3-3-2.12-2.82-5.1-1.53a9.83,9.83,0,0,0-1.26-.52l-.76-1.9A1,1,0,0,0,27.5,12H27V6A6,6,0,0,0,15.33,4a8,8,0,0,0-7.33,8A7,7,0,0,0,2.69,22a8,8,0,0,0,1.55,13,8,8,0,0,0,9.83,9.66A7,7,0,0,0,27,41V36c1.45,0,1.24-.16,2.19-2.53A9.83,9.83,0,0,0,30.45,33l1.87.81a1,1,0,0,0,1.1-.21c3-3,2.82-2.12,1.53-5.1a9.83,9.83,0,0,0,.52-1.26l1.9-.76A1,1,0,0,0,38,25.5v-3C38,21.67,37.47,21.61,35.47,20.81ZM25,41a5,5,0,0,1-9,2.94,7.76,7.76,0,0,0,1.63-1.23,1,1,0,0,0-1.4-1.42A6,6,0,0,1,6.14,35.77a7.78,7.78,0,0,0,3,.15,1,1,0,0,0-.3-2c-6.15.93-9.47-7.25-4.3-10.84a1,1,0,0,0,.27-1.37,5,5,0,0,1,5.85-7.45,1,1,0,0,0,.66-1.88C10.2,12,10,12.21,10,12a6,6,0,0,1,5-5.91,6.06,6.06,0,0,0,.5,2.31,1,1,0,0,0,1.83-.8A4,4,0,1,1,25,6v6c-1.45,0-1.24.16-2.19,2.53a9.83,9.83,0,0,0-1.26.52l-1.87-.81a1,1,0,0,0-1.1.21c-3,3-2.82,2.12-1.53,5.1a9.83,9.83,0,0,0-.52,1.26l-1.9.76a1,1,0,0,0-.63.93v3c0,.83.53.89,2.53,1.69a9.83,9.83,0,0,0,.52,1.26l-.81,1.87a1,1,0,0,0,.21,1.1c3,3,2.12,2.82,5.1,1.53a9.83,9.83,0,0,0,1.26.52l.76,1.9a1,1,0,0,0,.93.63H25ZM36,24.82c-1.62.65-2.13.72-2.3,1.35-.84,2.91-1.42,1.11-.05,4.32l-1.16,1.16c-1.7-.72-2-1-2.58-.68-2.52,1.45-1.77-.26-3.09,3H25.18c-.78-2-.78-2.14-1.35-2.31-2.94-.82-1-1.42-4.32,0l-1.16-1.16c.7-1.65,1-2,.68-2.58-1.5-2.62.29-1.75-3-3.09V23.18c1.62-.65,2.13-.72,2.3-1.35.84-2.91,1.42-1.11.05-4.32l1.16-1.16c1.67.71,2,1,2.58.68,2.52-1.45,1.77.26,3.09-3h1.64c.78,1.95.78,2.14,1.35,2.31,2.94.82,1,1.42,4.32,0l1.16,1.16c-.7,1.65-1,2-.68,2.58,1.5,2.62-.29,1.75,3,3.09Z"></path>
    </g>
  </symbol>
  <symbol xmlns="http://www.w3.org/2000/svg" viewBox="0 0 48 48" id="Correction">
    <defs></defs>
    <title>Correction</title>
    <g id="Correction">
      <path d="M9.05,24.68l2-6a1,1,0,0,1,1.9.64l-2,6A1,1,0,0,1,9.05,24.68Z"></path>
      <path d="M15,25a1,1,0,0,1-.71-1.71L15.59,22l-1.3-1.29a1,1,0,0,1,1.42-1.42l2,2a1,1,0,0,1,0,1.42C15.53,24.89,15.54,25,15,25Z"></path>
      <path d="M7,25c-.54,0-.57-.15-2.71-2.29a1,1,0,0,1,0-1.42l2-2a1,1,0,0,1,1.42,1.42L6.41,22l1.3,1.29A1,1,0,0,1,7,25Z"></path>
      <path d="M35.05,24.68l2-6a1,1,0,0,1,1.9.64l-2,6A1,1,0,0,1,35.05,24.68Z"></path>
      <path d="M41,25a1,1,0,0,1-.71-1.71L41.59,22l-1.3-1.29a1,1,0,0,1,1.42-1.42l2,2a1,1,0,0,1,0,1.42C41.53,24.89,41.54,25,41,25Z"></path>
      <path d="M33,25c-.54,0-.57-.15-2.71-2.29a1,1,0,0,1,0-1.42l2-2a1,1,0,0,1,1.42,1.42L32.41,22l1.3,1.29A1,1,0,0,1,33,25Z"></path>
      <path d="M19,8H3a3,3,0,0,0-3,3V33a3,3,0,0,0,3,3H5.35A5.8,5.8,0,0,1,5,34H3a1,1,0,0,1-1-1V16H20V33a1,1,0,0,1-1,1H17a5.8,5.8,0,0,1-.35,2H19a3,3,0,0,0,3-3V11A3,3,0,0,0,19,8ZM6,14H2V11a1,1,0,0,1,1-1H6Zm14,0H8V10H19a1,1,0,0,1,1,1Z"></path>
      <path d="M45,8H29a3,3,0,0,0-3,3V33a3,3,0,0,0,3,3h2.35A5.8,5.8,0,0,1,31,34H29a1,1,0,0,1-1-1V16H46V33a1,1,0,0,1-1,1H43a5.8,5.8,0,0,1-.35,2H45a3,3,0,0,0,3-3V11A3,3,0,0,0,45,8ZM32,14H28V11a1,1,0,0,1,1-1h3Zm14,0H34V10H45a1,1,0,0,1,1,1Z"></path>
      <path d="M11,28a6,6,0,1,0,6,6A6,6,0,0,0,11,28Zm3.71,4.71C10.34,37.08,10.56,37,10,37s-.57-.15-2.71-2.29a1,1,0,0,1,1.42-1.42L10,34.59l3.29-3.3A1,1,0,0,1,14.71,32.71Z"></path>
      <path d="M37,28a6,6,0,1,0,6,6A6,6,0,0,0,37,28Zm3.21,7.79a1,1,0,0,1-.71,1.71c-.55,0-.6-.19-2.5-2.09-1.91,1.91-1.94,2.09-2.5,2.09a1,1,0,0,1-.71-1.71L35.59,34l-1.8-1.79a1,1,0,0,1,1.42-1.42L37,32.59l1.79-1.8a1,1,0,0,1,1.42,1.42L38.41,34Z"></path>
    </g>
  </symbol>
  <symbol xmlns="http://www.w3.org/2000/svg" viewBox="0 0 48 48" id="Costum Featured">
    <defs></defs>
    <title>Costum Featured</title>
    <g id="Costum_Featured">
      <path d="M6,8A1,1,0,0,1,4,8,1,1,0,0,1,6,8Z"></path>
      <path d="M10,8A1,1,0,0,1,8,8,1,1,0,0,1,10,8Z"></path>
      <path d="M14,8a1,1,0,0,1-2,0A1,1,0,0,1,14,8Z"></path>
      <path d="M44,3H4A4,4,0,0,0,0,7V41a4,4,0,0,0,4,4H44a4,4,0,0,0,4-4V7A4,4,0,0,0,44,3ZM4,5H44a2,2,0,0,1,2,2v4H2V7A2,2,0,0,1,4,5ZM44,43H4a2,2,0,0,1-2-2V13H46V41A2,2,0,0,1,44,43Z"></path>
      <path d="M43,9H29a1,1,0,0,1,0-2H43A1,1,0,0,1,43,9Z"></path>
      <path d="M25,31H5a1,1,0,0,1-1-1V24a1,1,0,0,1,1-1H25a1,1,0,0,1,1,1v6A1,1,0,0,1,25,31ZM6,29H24V25H6Z"></path>
      <rect x="28" y="15" width="16" height="26" rx="1"></rect>
      <path d="M17,17H5a1,1,0,0,1,0-2H17A1,1,0,0,1,17,17Z"></path>
      <path d="M25,21H5a1,1,0,0,1,0-2H25A1,1,0,0,1,25,21Z"></path>
      <path d="M19,39H11a2,2,0,0,1,0-4h8a2,2,0,0,1,0,4Z"></path>
    </g>
  </symbol>
  <symbol xmlns="http://www.w3.org/2000/svg" viewBox="0 0 48 48" id="CSS">
    <defs></defs>
    <title>CSS</title>
    <g id="CSS">
      <path d="M45,47a1,1,0,0,1-1,1H8a1,1,0,0,1-1-1V43H9v3H43V12H38a3,3,0,0,1-3-3V2H9V21H7V1A1,1,0,0,1,8,0C38.48,0,36.19-.12,36.64.25c.13.1,8.19,10.16,8.27,10.34C44.91,14.35,45-2.95,45,47Z"></path>
      <path d="M29,31a1,1,0,1,1,1-1,1,1,0,0,0,1,1c1.91,0,1-4-2-4a3,3,0,0,0,0,6,1,1,0,1,1-1,1,1,1,0,0,0-1-1c-1.91,0-1,4,2,4a3,3,0,0,0,0-6Z"></path>
      <path d="M21,29a1,1,0,0,1,1,1,1,1,0,0,0,1,1c1.91,0,1-4-2-4a3,3,0,0,0,0,6,1,1,0,1,1-1,1,1,1,0,0,0-1-1c-1.91,0-1,4,2,4a3,3,0,0,0,0-6A1,1,0,0,1,21,29Z"></path>
      <path d="M14.48,34.34A2,2,0,0,1,11,33V31a2,2,0,0,1,3.43-1.4,1,1,0,1,0,1.4-1.43A4,4,0,0,0,9,31v2a4,4,0,0,0,7,2.66A1,1,0,0,0,14.48,34.34Z"></path>
      <path d="M37,41H4a1,1,0,0,1-1-1V24a1,1,0,0,1,1-1H37a1,1,0,0,1,1,1V40A1,1,0,0,1,37,41ZM5,39H36V25H5Z"></path>
      <path d="M20,15a1,1,0,0,1-2,0A1,1,0,0,1,20,15Z"></path>
      <path d="M24,15a1,1,0,0,1-2,0A1,1,0,0,1,24,15Z"></path>
      <path d="M28,15a1,1,0,0,1-2,0A1,1,0,0,1,28,15Z"></path>
      <path d="M17,20H16a2,2,0,0,1-2-2c0-1.7.11-1.48-.71-2.29a1,1,0,0,1,0-1.42c.83-.82.71-.59.71-2.29a2,2,0,0,1,2-2h1a1,1,0,0,1,0,2H16c0,1.62.05,2.13-.62,3,.71.92.62,1.68.62,3h1A1,1,0,0,1,17,20Z"></path>
      <path d="M30,20H29a1,1,0,0,1,0-2h1c0-1.62-.05-2.13.62-3-.71-.92-.62-1.68-.62-3H29a1,1,0,0,1,0-2h1a2,2,0,0,1,2,2c0,1.7-.11,1.48.71,2.29a1,1,0,0,1,0,1.42c-.8.8-.71.55-.71,2.29A2,2,0,0,1,30,20Z"></path>
    </g>
  </symbol>
  <symbol xmlns="http://www.w3.org/2000/svg" viewBox="0 0 48 48" id="Dashboard">
    <defs></defs>
    <title>Dashboard</title>
    <g id="Dashboard">
      <path d="M18,30l5.73-5.73a2,2,0,0,1,2.67-.15l2.2,1.76a2,2,0,0,0,2.67-.15l3-3a2,2,0,0,1,3.08.3L42,30"></path>
      <path d="M45,0H3A3,3,0,0,0,0,3V45a3,3,0,0,0,3,3H45a3,3,0,0,0,3-3V3A3,3,0,0,0,45,0ZM29,3H43a1,1,0,0,1,0,2H29A1,1,0,0,1,29,3ZM9,3A1,1,0,0,1,9,5,1,1,0,0,1,9,3ZM5,3A1,1,0,0,1,5,5,1,1,0,0,1,5,3Zm7,43H3a1,1,0,0,1-1-1V8H12ZM13,5a1,1,0,0,1,0-2A1,1,0,0,1,13,5ZM46,45a1,1,0,0,1-1,1H14V8H46Z"></path>
      <path d="M9,20H5a1,1,0,0,1,0-2H9A1,1,0,0,1,9,20Z"></path>
      <path d="M9,24H5a1,1,0,0,1,0-2H9A1,1,0,0,1,9,24Z"></path>
      <path d="M9,28H5a1,1,0,0,1,0-2H9A1,1,0,0,1,9,28Z"></path>
      <path d="M9,32H5a1,1,0,0,1,0-2H9A1,1,0,0,1,9,32Z"></path>
      <path d="M9,36H5a1,1,0,0,1,0-2H9A1,1,0,0,1,9,36Z"></path>
      <path d="M9,40H5a1,1,0,0,1,0-2H9A1,1,0,0,1,9,40Z"></path>
      <path d="M9,44H5a1,1,0,0,1,0-2H9A1,1,0,0,1,9,44Z"></path>
      <circle cx="7" cy="13" r="3"></circle>
      <rect x="17" y="10" width="12" height="6" rx="1"></rect>
      <rect x="31" y="10" width="12" height="6" rx="1"></rect>
      <path d="M42,31H18a1,1,0,0,1-1-1V20a1,1,0,0,1,2,0v9H42A1,1,0,0,1,42,31Z"></path>
      <path d="M23,40H17a1,1,0,0,1,0-2h6A1,1,0,0,1,23,40Z"></path>
      <path d="M23,44H17a1,1,0,0,1,0-2h6A1,1,0,0,1,23,44Z"></path>
      <path d="M33,40H27a1,1,0,0,1,0-2h6A1,1,0,0,1,33,40Z"></path>
      <path d="M33,44H27a1,1,0,0,1,0-2h6A1,1,0,0,1,33,44Z"></path>
      <path d="M43,40H37a1,1,0,0,1,0-2h6A1,1,0,0,1,43,40Z"></path>
      <path d="M23,36H17a1,1,0,0,1,0-2h6A1,1,0,0,1,23,36Z"></path>
      <path d="M33,36H27a1,1,0,0,1,0-2h6A1,1,0,0,1,33,36Z"></path>
      <path d="M43,36H37a1,1,0,0,1,0-2h6A1,1,0,0,1,43,36Z"></path>
      <path d="M43,44H37a1,1,0,0,1,0-2h6A1,1,0,0,1,43,44Z"></path>
    </g>
  </symbol>
  <symbol xmlns="http://www.w3.org/2000/svg" viewBox="0 0 48 48" id="Data Security">
    <defs></defs>
    <title>Data Security</title>
    <g id="Data_Security">
      <path d="M26,36V33a2,2,0,0,0-4,0v3a1,1,0,0,1-2,0V33a4,4,0,0,1,8,0v3A1,1,0,0,1,26,36Z"></path>
      <path d="M28,35H20a1,1,0,0,0-1,1v6a1,1,0,0,0,1,1h8a1,1,0,0,0,1-1V36A1,1,0,0,0,28,35Zm-3,5a1,1,0,0,1-2,0V38a1,1,0,0,1,2,0Z"></path>
      <path d="M42,9c-.05-.54.43.15-7.24-8.61C34.26-.15,36.38,0,7,0A1,1,0,0,0,6,1V18H8V2H33V7a3,3,0,0,0,3,3h4V21h2C42,4.49,42,10.19,42,9ZM36,8a1,1,0,0,1-1-1V3.66L38.8,8Z"></path>
      <path d="M26,8H12a1,1,0,0,1,0-2H26A1,1,0,0,1,26,8Z"></path>
      <path d="M19,12H12a1,1,0,0,1,0-2h7A1,1,0,0,1,19,12Z"></path>
      <path d="M19,16H12a1,1,0,0,1,0-2h7A1,1,0,0,1,19,16Z"></path>
      <path d="M28.05,17.68l2-6a1,1,0,0,1,1.9.64l-2,6A1,1,0,0,1,28.05,17.68Z"></path>
      <path d="M34,18a1,1,0,0,1-.71-1.71L34.59,15l-1.3-1.29a1,1,0,0,1,1.42-1.42l2,2a1,1,0,0,1,0,1.42C34.53,17.89,34.54,18,34,18Z"></path>
      <path d="M26,18c-.54,0-.57-.15-2.71-2.29a1,1,0,0,1,0-1.42l2-2a1,1,0,0,1,1.42,1.42L25.41,15l1.3,1.29A1,1,0,0,1,26,18Z"></path>
      <path d="M42,21,20.31,21l-2.68-2.68C17.22,17.88,17.76,18,6,18a3,3,0,0,0-3,3V45a3,3,0,0,0,3,3H42a3,3,0,0,0,3-3V24A3,3,0,0,0,42,21Zm1,24a1,1,0,0,1-1,1H6a1,1,0,0,1-1-1V26H43Z"></path>
    </g>
  </symbol>
  <symbol xmlns="http://www.w3.org/2000/svg" viewBox="0 0 48 48" id="Database">
    <defs></defs>
    <title>Database</title>
    <g id="Database">
      <path d="M0,35v8c0,4,14,4,14,0V35C14,31,0,31,0,35Zm12,3.91c-.29.35-2,1.09-5,1.09s-4.71-.74-5-1.09V37.2a16,16,0,0,0,10,0ZM11.91,35c-1.68,1.32-8.13,1.33-9.82,0C3.77,33.68,10.22,33.67,11.91,35ZM7,44c-3,0-4.71-.74-5-1.08V41.2a16,16,0,0,0,10,0v1.72C11.71,43.26,10,44,7,44Z"></path>
      <path d="M17,35v8c0,4,14,4,14,0V35C31,31,17,31,17,35Zm12,3.91c-.29.35-2,1.09-5,1.09s-4.71-.74-5-1.09V37.2a16,16,0,0,0,10,0ZM28.91,35c-1.68,1.32-8.13,1.33-9.82,0C20.77,33.68,27.22,33.67,28.91,35ZM24,44c-3,0-4.71-.74-5-1.08V41.2a16,16,0,0,0,10,0v1.72C28.71,43.26,27,44,24,44Z"></path>
      <path d="M34,35v8c0,4,14,4,14,0V35C48,31,34,31,34,35Zm12,3.91c-.29.35-2,1.09-5,1.09s-4.71-.74-5-1.09V37.2a16,16,0,0,0,10,0ZM45.91,35c-1.68,1.32-8.13,1.33-9.82,0C37.77,33.68,44.22,33.67,45.91,35ZM41,44c-3,0-4.71-.74-5-1.08V41.2a16,16,0,0,0,10,0v1.72C45.71,43.26,44,44,41,44Z"></path>
      <path d="M41,25H25V23a1,1,0,0,0-2,0v2H7a1,1,0,0,0-1,1v3a1,1,0,0,0,2,0V27H23v2a1,1,0,0,0,2,0V27H40v2a1,1,0,0,0,2,0V26A1,1,0,0,0,41,25Z"></path>
      <path d="M40,2H8A1,1,0,0,0,7,3V9a1,1,0,0,0,1,1H40a1,1,0,0,0,1-1V3A1,1,0,0,0,40,2ZM13,7a1,1,0,0,1-1,1H10A1,1,0,0,1,9,7V5a1,1,0,0,1,1-1h2a1,1,0,0,1,1,1Zm6,0a1,1,0,0,1-1,1H16a1,1,0,0,1-1-1V5a1,1,0,0,1,1-1h2a1,1,0,0,1,1,1ZM31,7a1,1,0,0,1-2,0V5a1,1,0,0,1,2,0Zm4,0a1,1,0,0,1-2,0V5a1,1,0,0,1,2,0Zm4,0a1,1,0,0,1-2,0V5a1,1,0,0,1,2,0Z"></path>
      <path d="M40,12H8a1,1,0,0,0-1,1v6a1,1,0,0,0,1,1H40a1,1,0,0,0,1-1V13A1,1,0,0,0,40,12ZM13,17a1,1,0,0,1-1,1H10a1,1,0,0,1-1-1V15a1,1,0,0,1,1-1h2a1,1,0,0,1,1,1Zm6,0a1,1,0,0,1-1,1H16a1,1,0,0,1-1-1V15a1,1,0,0,1,1-1h2a1,1,0,0,1,1,1Zm12,0a1,1,0,0,1-2,0V15a1,1,0,0,1,2,0Zm4,0a1,1,0,0,1-2,0V15a1,1,0,0,1,2,0Zm4,0a1,1,0,0,1-2,0V15a1,1,0,0,1,2,0Z"></path>
      <rect x="9" y="10" width="2" height="2"></rect>
      <rect x="37" y="10" width="2" height="2" transform="translate(76 22) rotate(-180)"></rect>
    </g>
  </symbol>
  <symbol xmlns="http://www.w3.org/2000/svg" viewBox="0 0 48 48" id="Deployment">
    <defs></defs>
    <title>Deployment</title>
    <g id="Deployment">
      <path d="M22.05,10.68l2-6a1,1,0,0,1,1.9.64l-2,6A1,1,0,0,1,22.05,10.68Z"></path>
      <path d="M28,11a1,1,0,0,1-.71-1.71L28.59,8l-1.3-1.29a1,1,0,0,1,1.42-1.42l2,2a1,1,0,0,1,0,1.42C28.53,10.89,28.54,11,28,11Z"></path>
      <path d="M20,11c-.54,0-.57-.15-2.71-2.29a1,1,0,0,1,0-1.42l2-2a1,1,0,0,1,1.42,1.42L19.41,8l1.3,1.29A1,1,0,0,1,20,11Z"></path>
      <path d="M22,44H20V34a2,2,0,0,0-2-2H4a2,2,0,0,0-2,2V44H0v2a2,2,0,0,0,2,2H20a2,2,0,0,0,2-2ZM4,34H18V44H4Z"></path>
      <path d="M36,14H35V2a2,2,0,0,0-2-2H15a2,2,0,0,0-2,2V14H12a1,1,0,0,0-1,1v3a3,3,0,0,0,3,3H34a3,3,0,0,0,3-3V15A1,1,0,0,0,36,14ZM15,2H33V14H15ZM35,18a1,1,0,0,1-1,1H14a1,1,0,0,1-1-1V16h7a1,1,0,0,0,1,1h6a1,1,0,0,0,1-1h7Z"></path>
      <path d="M15,38H7a1,1,0,0,1,0-2h8A1,1,0,0,1,15,38Z"></path>
      <path d="M15,42H7a1,1,0,0,1,0-2h8A1,1,0,0,1,15,42Z"></path>
      <path d="M26,46a2,2,0,0,0,2,2H46a2,2,0,0,0,2-2V44H46V34a2,2,0,0,0-2-2H30a2,2,0,0,0-2,2V44H26Zm18-2H30V34H44Z"></path>
      <path d="M33,38h8a1,1,0,0,0,0-2H33A1,1,0,0,0,33,38Z"></path>
      <path d="M33,42h8a1,1,0,0,0,0-2H33A1,1,0,0,0,33,42Z"></path>
      <path d="M38,27v2a1,1,0,0,1-2,0V28H12v1a1,1,0,0,1-2,0V27a1,1,0,0,1,1-1H23V24a1,1,0,0,1,2,0v2H37A1,1,0,0,1,38,27Z"></path>
    </g>
  </symbol>
  <symbol xmlns="http://www.w3.org/2000/svg" viewBox="0 0 48 48" id="Design Development">
    <defs></defs>
    <title>Design Development</title>
    <g id="Design_Development">
      <path d="M45,0H3A3,3,0,0,0,0,3V43a3,3,0,0,0,3,3c1.29,0,.37.3.08-2A1,1,0,0,1,2,43V8H46V43a1,1,0,0,1-1,1H32v2H45a3,3,0,0,0,3-3V3A3,3,0,0,0,45,0ZM5,5A1,1,0,0,1,5,3,1,1,0,0,1,5,5ZM9,5A1,1,0,0,1,9,3,1,1,0,0,1,9,5Zm4,0a1,1,0,0,1,0-2A1,1,0,0,1,13,5ZM43,5H29a1,1,0,0,1,0-2H43A1,1,0,0,1,43,5Z"></path>
      <path d="M29,38H22.07L27,33.1a1,1,0,0,0,0-1.42L21.32,26a1,1,0,0,0-1.42,0c-.73.73,2.2-2.19-4.9,4.91V24a1,1,0,0,0-1-1H6a1,1,0,0,0-1,1V43a5,5,0,0,0,5,5H29a1,1,0,0,0,1-1V39A1,1,0,0,0,29,38Zm-6,2v6H20c0-6.6,0-5.9.07-6ZM7,33V30h6v3Zm0,2h6v3H7Zm8,1.68,2.78,2.78L15,42.24Zm-1,9.25c.27-.11.05.06,4-3.86V46C13.49,46,14,46,14,45.93Zm6.58-17.78,4.24,4.24-2.12,2.12-4.24-4.23Zm-3.54,3.54,4.24,4.24-2.12,2.12C14.54,33.4,15,33.9,15,33.76ZM13,25v3H7V25ZM7,43V40h6v3a3,3,0,0,1-6,0Zm21,3H25V40h3Z"></path>
      <path d="M11,43a1,1,0,0,1-2,0A1,1,0,0,1,11,43Z"></path>
      <path d="M30,16a1,1,0,0,1-2,0A1,1,0,0,1,30,16Z"></path>
      <path d="M34,16a1,1,0,0,1-2,0A1,1,0,0,1,34,16Z"></path>
      <path d="M38,16a1,1,0,0,1-2,0A1,1,0,0,1,38,16Z"></path>
      <path d="M27,21H26a2,2,0,0,1-2-2c0-1.05.1-1.49-.29-1.88S23,16.49,23,16s.26-.68.71-1.12S24,14.21,24,13a2,2,0,0,1,2-2h1a1,1,0,0,1,0,2H26c0,1.62.05,2.13-.62,3,.71.92.62,1.68.62,3h1A1,1,0,0,1,27,21Z"></path>
      <path d="M40,21H39a1,1,0,0,1,0-2h1c0-1.62,0-2.13.62-3-.71-.92-.62-1.68-.62-3H39a1,1,0,0,1,0-2h1a2,2,0,0,1,2,2c0,1.7-.11,1.48.71,2.29a1,1,0,0,1,0,1.42c-.8.8-.71.55-.71,2.29A2,2,0,0,1,40,21Z"></path>
      <path d="M42,26H36a1,1,0,0,1,0-2h6A1,1,0,0,1,42,26Z"></path>
      <path d="M42,30H32a1,1,0,0,1,0-2H42A1,1,0,0,1,42,30Z"></path>
      <path d="M42,34H32a1,1,0,0,1,0-2H42A1,1,0,0,1,42,34Z"></path>
      <path d="M19,13H6a1,1,0,0,1,0-2H19A1,1,0,0,1,19,13Z"></path>
      <path d="M19,17H6a1,1,0,0,1,0-2H19A1,1,0,0,1,19,17Z"></path>
      <path d="M19,21H6a1,1,0,0,1,0-2H19A1,1,0,0,1,19,21Z"></path>
    </g>
  </symbol>
  <symbol xmlns="http://www.w3.org/2000/svg" viewBox="0 0 48 48" id="Developer">
    <defs></defs>
    <title>Developer</title>
    <g id="Developer">
      <path d="M25.79,29.83l.35.81L22,30V25.92A8,8,0,0,0,26,19c1.24,0,2.61.12,3.56-1.43.07,1.95,0,.35.26,8.23Z"></path>
      <path d="M6,31.23,14,30V25.92A8,8,0,0,1,10,19c-1.24,0-2.61.12-3.56-1.43Z"></path>
      <polygon points="18 32 14 36 9.58 30.68 14 30 18 32"></polygon>
      <path d="M26.24,30.89,22,36l-4-4,4-2C26.75,30.73,26.1,30.54,26.24,30.89Z"></path>
      <path d="M48,38.5v-3l-2.34-.94a9.4,9.4,0,0,0-.81-2l1-2.32-2.12-2.12-2.32,1a9.4,9.4,0,0,0-2-.81L38.5,26h-3l-.94,2.34a9.4,9.4,0,0,0-2,.81l-2.32-1-2.12,2.12,1,2.32a9.4,9.4,0,0,0-.81,2L26,35.5v3l2.34.94a9.4,9.4,0,0,0,.81,2l-1,2.32,2.12,2.12,2.32-1a9.4,9.4,0,0,0,2,.81L35.5,48h3l.94-2.34a9.4,9.4,0,0,0,2-.81l2.32,1,2.12-2.12-1-2.32a9.4,9.4,0,0,0,.81-2Zm-14.29-.21A1,1,0,0,1,33,40c-.55,0-.58-.16-2.71-2.29a1,1,0,0,1,0-1.42l2-2a1,1,0,0,1,1.42,1.42L32.41,37Zm5.24-4-2,6a1,1,0,0,1-1.9-.64l2-6A1,1,0,0,1,39,34.32Zm4.76,3.39C41.59,39.83,41.55,40,41,40a1,1,0,0,1-.71-1.71L41.59,37l-1.3-1.29a1,1,0,0,1,1.42-1.42l2,2A1,1,0,0,1,43.71,37.71Z"></path>
      <path d="M8.47,46a3.42,3.42,0,0,1,.24-3.76C10.2,40,10,40.62,10,39a1,1,0,0,0-2,0v.7C7,41.14,5.32,43.25,6.25,46H2V36.29a4,4,0,0,1,3.39-3.95L13.84,31c4,2,4,2.15,4.61,1.85L22.16,31l4.44.68-.81-1.89.22-.22-3-.47V26.48A9,9,0,0,0,26.94,20,4,4,0,1,0,27,12H26a1,1,0,0,0-1,1v6a7,7,0,0,1-14,0V13a1,1,0,0,0-1-1,4.77,4.77,0,0,0-3.4.81A4,4,0,0,0,9.06,20,9,9,0,0,0,13,26.48v2.66L5.09,30.36A6,6,0,0,0,0,36.29V47a1,1,0,0,0,1,1H29.62l-2-2ZM27,14a2,2,0,0,1,0,4ZM15,27.47a8.72,8.72,0,0,0,6,0v1.91l-3,1.5-3-1.5ZM9,18a2,2,0,0,1,0-4Z"></path>
      <path d="M29.41,13h-3.8A6.75,6.75,0,0,1,20,10c-5.22,3.12-9.42,3-13.41,3l.06-2a11.36,11.36,0,0,1,22.7,0Z"></path>
    </g>
  </symbol>
  <symbol xmlns="http://www.w3.org/2000/svg" viewBox="0 0 48 48" id="Edit code">
    <defs></defs>
    <title>Edit code</title>
    <g id="Edit_code">
      <path d="M40,0H4A4,4,0,0,0,0,4V38a4,4,0,0,0,4,4H23.35a13.78,13.78,0,0,1-.77-2H4a2,2,0,0,1-2-2V8H42V23.35a12.91,12.91,0,0,1,2,1.17V4A4,4,0,0,0,40,0ZM5,5A1,1,0,0,1,5,3,1,1,0,0,1,5,5ZM9,5A1,1,0,0,1,9,3,1,1,0,0,1,9,5Zm4,0a1,1,0,0,1,0-2A1,1,0,0,1,13,5ZM39,5H27a1,1,0,0,1,0-2H39A1,1,0,0,1,39,5Z"></path>
      <polygon points="31.11 38.77 33.23 40.89 30.05 41.95 31.11 38.77"></polygon>
      <path d="M41.37,33.46l-.71.71-2.83-2.83.71-.71a2,2,0,0,1,2.83,2.83Z"></path>
      <rect x="32.71" y="34.29" width="6" height="4" transform="translate(-15.2 35.88) rotate(-45)"></rect>
      <path d="M36,48A12,12,0,1,1,48,36,12,12,0,0,1,36,48Zm0-22A10,10,0,1,0,46,36,10,10,0,0,0,36,26Z"></path>
      <path d="M20.05,18.68l2-6a1,1,0,0,1,1.9.64l-2,6A1,1,0,0,1,20.05,18.68Z"></path>
      <path d="M26,19a1,1,0,0,1-.71-1.71L26.59,16l-1.3-1.29a1,1,0,0,1,1.42-1.42l2,2a1,1,0,0,1,0,1.42C26.53,18.89,26.54,19,26,19Z"></path>
      <path d="M18,19c-.54,0-.57-.15-2.71-2.29a1,1,0,0,1,0-1.42l2-2a1,1,0,0,1,1.42,1.42L17.41,16l1.3,1.29A1,1,0,0,1,18,19Z"></path>
      <path d="M26,25H6a1,1,0,0,1,0-2H26A1,1,0,0,1,26,25Z"></path>
      <path d="M21,37H6a1,1,0,0,1,0-2H21A1,1,0,0,1,21,37Z"></path>
      <path d="M21,29H6a1,1,0,0,1,0-2H21A1,1,0,0,1,21,29Z"></path>
      <path d="M21,33H6a1,1,0,0,1,0-2H21A1,1,0,0,1,21,33Z"></path>
    </g>
  </symbol>
  <symbol xmlns="http://www.w3.org/2000/svg" viewBox="0 0 48 48" id="Editing">
    <defs></defs>
    <title>Editing</title>
    <g id="Editing">
      <path d="M45,6H37.23A2.94,2.94,0,0,1,38,8h7a1,1,0,0,1,1,1V34H2V9A1,1,0,0,1,3,8h7a2.94,2.94,0,0,1,.77-2H3A3,3,0,0,0,0,9V39a3,3,0,0,0,3,3H17.82l-.67,4H16a1,1,0,0,0,0,2H32a1,1,0,0,0,0-2H30.85l-.67-4H45a3,3,0,0,0,3-3V9A3,3,0,0,0,45,6ZM24,37a1,1,0,0,1,0,2A1,1,0,0,1,24,37Zm-4.82,9,.67-4h8.3l.67,4Z"></path>
      <path d="M30,8.82V7.18l-1.28-.51c-.44-1.58-.71-.45.1-2.33L27.66,3.18l-1.26.54c-1.42-.8-.81.2-1.58-1.72H23.18l-.51,1.28c-1.58.44-.45.71-2.33-.1L19.18,4.34l.54,1.26c-.8,1.42.2.81-1.72,1.58V8.82l1.28.51c.44,1.58.71.45-.1,2.33l1.16,1.16,1.26-.54c1.42.8.81-.2,1.58,1.72h1.64l.51-1.28c1.58-.44.45-.71,2.33.1l1.16-1.16-.54-1.26C29.08,9,28.08,9.59,30,8.82ZM24,10a2,2,0,1,1,2-2A2,2,0,0,1,24,10Z"></path>
      <path d="M17,16a3,3,0,0,1-3-3c0-3.08.34-2.25-1.71-4.29a1,1,0,0,1,0-1.42C14.36,5.23,14,6.07,14,3s4-3.92,4-2a1,1,0,0,1-1,1,1,1,0,0,0-1,1c0,3.23.19,3.22-1.59,5l.71.71c2,1.95-.21,5.29,1.88,5.29A1,1,0,0,1,17,16Z"></path>
      <path d="M31,16a1,1,0,0,1,0-2,1,1,0,0,0,1-1c0-3.17-.23-3.18,1.59-5C31.82,6.24,32,6.33,32,3a1,1,0,0,0-1-1,1,1,0,0,1,0-2,3,3,0,0,1,3,3c0,3.08-.34,2.25,1.71,4.29a1,1,0,0,1,0,1.42C33.64,10.77,34,9.93,34,13A3,3,0,0,1,31,16Z"></path>
      <path d="M6,19a1,1,0,0,1-2,0A1,1,0,0,1,6,19Z"></path>
      <path d="M13,20H9a1,1,0,0,1,0-2h4A1,1,0,0,1,13,20Z"></path>
      <path d="M27,24H23a1,1,0,0,1,0-2h4A1,1,0,0,1,27,24Z"></path>
      <path d="M33,28H29a1,1,0,0,1,0-2h4A1,1,0,0,1,33,28Z"></path>
      <path d="M6,23a1,1,0,0,1-2,0A1,1,0,0,1,6,23Z"></path>
      <path d="M19,24H9a1,1,0,0,1,0-2H19A1,1,0,0,1,19,24Z"></path>
      <path d="M27,20H17a1,1,0,0,1,0-2H27A1,1,0,0,1,27,20Z"></path>
      <path d="M15,32H13a1,1,0,0,1,0-2h2A1,1,0,0,1,15,32Z"></path>
      <path d="M43,24H31a1,1,0,0,1,0-2H43A1,1,0,0,1,43,24Z"></path>
      <path d="M27,32H19a1,1,0,0,1,0-2h8A1,1,0,0,1,27,32Z"></path>
      <path d="M39,32H31a1,1,0,0,1,0-2h8A1,1,0,0,1,39,32Z"></path>
      <path d="M10,27a1,1,0,0,1-2,0A1,1,0,0,1,10,27Z"></path>
      <path d="M25,28H13a1,1,0,0,1,0-2H25A1,1,0,0,1,25,28Z"></path>
      <path d="M10,31a1,1,0,0,1-2,0A1,1,0,0,1,10,31Z"></path>
    </g>
  </symbol>
  <symbol xmlns="http://www.w3.org/2000/svg" viewBox="0 0 48 48" id="Encription">
    <defs></defs>
    <title>Encription</title>
    <g id="Encription">
      <path d="M21.47,32.81A9.83,9.83,0,0,0,21,31.55l.81-1.87a1,1,0,0,0-.21-1.1c-3-3-2.12-2.82-5.1-1.53a9.83,9.83,0,0,0-1.26-.52l-.76-1.9A1,1,0,0,0,13.5,24h-3c-.83,0-.89.53-1.69,2.53a9.83,9.83,0,0,0-1.26.52l-1.87-.81a1,1,0,0,0-1.1.21c-3,3-2.82,2.12-1.53,5.1a9.83,9.83,0,0,0-.52,1.26l-1.9.76A1,1,0,0,0,0,34.5v3c0,.83.53.89,2.53,1.69a9.83,9.83,0,0,0,.52,1.26l-.81,1.87a1,1,0,0,0,.21,1.1c3,3,2.12,2.82,5.1,1.53a9.83,9.83,0,0,0,1.26.52l.76,1.9a1,1,0,0,0,.93.63h3c.83,0,.89-.53,1.69-2.53A9.83,9.83,0,0,0,16.45,45l1.87.81a1,1,0,0,0,1.1-.21c3-3,2.82-2.12,1.53-5.1a9.83,9.83,0,0,0,.52-1.26l1.9-.76A1,1,0,0,0,24,37.5v-3C24,33.67,23.47,33.61,21.47,32.81Zm.53,4c-1.48.6-2.11.69-2.31,1.35-.81,2.89-1.42,1.08,0,4.32l-1.16,1.16c-1.56-.67-2-1-2.58-.68-2.62,1.5-1.75-.3-3.09,3H11.18c-.6-1.48-.69-2.11-1.35-2.31-2.89-.8-1.07-1.42-4.32,0L4.35,42.49c.7-1.65,1-2,.68-2.58-1.5-2.62.3-1.75-3-3.09V35.18c1.48-.6,2.11-.69,2.31-1.35.81-2.89,1.42-1.08,0-4.32l1.16-1.16c1.65.7,2,1,2.58.68,2.62-1.5,1.75.3,3.09-3h1.64c.6,1.48.69,2.11,1.35,2.31,2.89.8,1.08,1.42,4.32,0l1.16,1.16c-.7,1.65-1,2-.68,2.58,1.5,2.62-.3,1.75,3,3.09Z"></path>
      <path d="M15.73,37.47a4,4,0,0,0-5.2-5.2,1,1,0,0,1-.72-1.86,6,6,0,0,1,7.78,7.78A1,1,0,0,1,15.73,37.47Z"></path>
      <path d="M6.41,33.81a1,1,0,0,1,1.86.72,4,4,0,0,0,5.2,5.2,1,1,0,0,1,.72,1.86A6,6,0,0,1,6.41,33.81Z"></path>
      <path d="M25,23a3,3,0,0,1-3-3V18a3,3,0,0,1,6,0v2A3,3,0,0,1,25,23Zm-1-5v2a1,1,0,0,0,2,0V18A1,1,0,0,0,24,18Z"></path>
      <path d="M17,23a3,3,0,0,1-3-3V18a3,3,0,0,1,6,0v2A3,3,0,0,1,17,23Zm-1-5v2a1,1,0,0,0,2,0V18A1,1,0,0,0,16,18Z"></path>
      <path d="M41,23a3,3,0,0,1-3-3V18a3,3,0,0,1,6,0v2A3,3,0,0,1,41,23Zm-1-5v2a1,1,0,0,0,2,0V18A1,1,0,0,0,40,18Z"></path>
      <path d="M30,22V16a1,1,0,0,1,2,0v6A1,1,0,0,1,30,22Z"></path>
      <path d="M37,43a3,3,0,0,1-3-3V38a3,3,0,0,1,6,0v2A3,3,0,0,1,37,43Zm-1-5v2a1,1,0,0,0,2,0V38A1,1,0,0,0,36,38Z"></path>
      <path d="M29,43a3,3,0,0,1-3-3V38a3,3,0,0,1,6,0v2A3,3,0,0,1,29,43Zm-1-5v2a1,1,0,0,0,2,0V38A1,1,0,0,0,28,38Z"></path>
      <path d="M42,42V36a1,1,0,0,1,2,0v6A1,1,0,0,1,42,42Z"></path>
      <path d="M34,22V16a1,1,0,0,1,2,0v6A1,1,0,0,1,34,22Z"></path>
      <path d="M33,33a3,3,0,0,1-3-3V28a3,3,0,0,1,6,0v2A3,3,0,0,1,33,33Zm-1-5v2a1,1,0,0,0,2,0V28A1,1,0,0,0,32,28Z"></path>
      <path d="M38,32V26a1,1,0,0,1,2,0v6A1,1,0,0,1,38,32Z"></path>
      <path d="M26,32V26a1,1,0,0,1,2,0v6A1,1,0,0,1,26,32Z"></path>
      <path d="M42,32V26a1,1,0,0,1,2,0v6A1,1,0,0,1,42,32Z"></path>
      <path d="M48,11c0-.47.45.24-8.21-10.58C39.49-.2,39.75,0,11,0a1,1,0,0,0-1,1V22a14.77,14.77,0,0,1,2,0V2H38V9a3,3,0,0,0,3,3h5V46H21.8c-1,1-1.62,1.84-3.08,1.84a4.76,4.76,0,0,1-2.07-.63l-.32.79H47a1,1,0,0,0,1-1C48,44.69,48,8.67,48,11Z"></path>
    </g>
  </symbol>
  <symbol xmlns="http://www.w3.org/2000/svg" viewBox="0 0 48 48" id="Framework">
    <defs></defs>
    <title>Framework</title>
    <g id="Framework">
      <path d="M42,29H25V27a1,1,0,0,0-2,0v2H6a1,1,0,0,0-1,1v5a1,1,0,0,0,2,0V31H23v4a1,1,0,0,0,2,0V31H41v4a1,1,0,0,0,2,0V30A1,1,0,0,0,42,29Z"></path>
      <path d="M0,35V47a1,1,0,0,0,1,1H11a1,1,0,0,0,1-1V35a1,1,0,0,0-1-1H1A1,1,0,0,0,0,35ZM9,46H3a1,1,0,0,1,0-2H9A1,1,0,0,1,9,46Zm0-4H3a1,1,0,0,1,0-2H9A1,1,0,0,1,9,42Zm0-4H3a1,1,0,0,1,0-2H9A1,1,0,0,1,9,38Z"></path>
      <path d="M18,35V47a1,1,0,0,0,1,1H29a1,1,0,0,0,1-1V35a1,1,0,0,0-1-1H19A1,1,0,0,0,18,35Zm9,11H21a1,1,0,0,1,0-2h6A1,1,0,0,1,27,46Zm0-4H21a1,1,0,0,1,0-2h6A1,1,0,0,1,27,42Zm0-4H21a1,1,0,0,1,0-2h6A1,1,0,0,1,27,38Z"></path>
      <path d="M36,35V47a1,1,0,0,0,1,1H47a1,1,0,0,0,1-1V35a1,1,0,0,0-1-1H37A1,1,0,0,0,36,35Zm9,11H39a1,1,0,0,1,0-2h6A1,1,0,0,1,45,46Zm0-4H39a1,1,0,0,1,0-2h6A1,1,0,0,1,45,42Zm0-4H39a1,1,0,0,1,0-2h6A1,1,0,0,1,45,38Z"></path>
      <path d="M15,5a1,1,0,0,1-2,0A1,1,0,0,1,15,5Z"></path>
      <path d="M19,5a1,1,0,0,1-2,0A1,1,0,0,1,19,5Z"></path>
      <path d="M36,0H12A3,3,0,0,0,9,3V21a3,3,0,0,0,3,3H36a3,3,0,0,0,3-3V3A3,3,0,0,0,36,0ZM12,2H36a1,1,0,0,1,1,1V8H11V3A1,1,0,0,1,12,2ZM36,22H12a1,1,0,0,1-1-1V10H37V21A1,1,0,0,1,36,22Z"></path>
      <path d="M34,6H26a1,1,0,0,1,0-2h8A1,1,0,0,1,34,6Z"></path>
      <path d="M22.05,18.68l2-6a1,1,0,0,1,1.9.64l-2,6A1,1,0,0,1,22.05,18.68Z"></path>
      <path d="M28,19a1,1,0,0,1-.71-1.71L28.59,16l-1.3-1.29a1,1,0,0,1,1.42-1.42l2,2a1,1,0,0,1,0,1.42C28.53,18.89,28.54,19,28,19Z"></path>
      <path d="M20,19c-.54,0-.57-.15-2.71-2.29a1,1,0,0,1,0-1.42l2-2a1,1,0,0,1,1.42,1.42L19.41,16l1.3,1.29A1,1,0,0,1,20,19Z"></path>
    </g>
  </symbol>
  <symbol xmlns="http://www.w3.org/2000/svg" viewBox="0 0 48 48" id="Frontend">
    <defs></defs>
    <title>Frontend</title>
    <g id="Frontend">
      <rect x="9" y="12" width="30" height="8" rx="1"></rect>
      <path d="M16,28H10a1,1,0,0,1-1-1V23a1,1,0,0,1,1-1h6a1,1,0,0,1,1,1v4A1,1,0,0,1,16,28Zm-5-2h4V24H11Z"></path>
      <path d="M27,28H21a1,1,0,0,1-1-1V23a1,1,0,0,1,1-1h6a1,1,0,0,1,1,1v4A1,1,0,0,1,27,28Zm-5-2h4V24H22Z"></path>
      <path d="M38,28H32a1,1,0,0,1-1-1V23a1,1,0,0,1,1-1h6a1,1,0,0,1,1,1v4A1,1,0,0,1,38,28Zm-5-2h4V24H33Z"></path>
      <path d="M16,32H10a1,1,0,0,1,0-2h6A1,1,0,0,1,16,32Z"></path>
      <path d="M27,32H21a1,1,0,0,1,0-2h6A1,1,0,0,1,27,32Z"></path>
      <path d="M38,32H32a1,1,0,0,1,0-2h6A1,1,0,0,1,38,32Z"></path>
      <path d="M45,6H43V8h2a1,1,0,0,1,1,1V34H2V9A1,1,0,0,1,3,8H5V6H3A3,3,0,0,0,0,9V39a3,3,0,0,0,3,3H17.82l-.67,4H16a1,1,0,0,0,0,2H32a1,1,0,0,0,0-2H30.85l-.67-4H45a3,3,0,0,0,3-3V9A3,3,0,0,0,45,6ZM24,37a1,1,0,0,1,0,2A1,1,0,0,1,24,37Zm-4.82,9,.67-4h8.3l.67,4Z"></path>
      <path d="M11,5A1,1,0,0,1,9,5,1,1,0,0,1,11,5Z"></path>
      <path d="M15,5a1,1,0,0,1-2,0A1,1,0,0,1,15,5Z"></path>
      <path d="M19,5a1,1,0,0,1-2,0A1,1,0,0,1,19,5Z"></path>
      <path d="M39,0H9A4,4,0,0,0,5,4V34H7V10H41V34h2V4A4,4,0,0,0,39,0Zm2,8H7V4A2,2,0,0,1,9,2H39a2,2,0,0,1,2,2Z"></path>
      <path d="M38,6H28a1,1,0,0,1,0-2H38A1,1,0,0,1,38,6Z"></path>
    </g>
  </symbol>
  <symbol xmlns="http://www.w3.org/2000/svg" viewBox="0 0 48 48" id="HTML">
    <defs></defs>
    <title>HTML</title>
    <g id="HTML">
      <path d="M47,47a1,1,0,0,1-1,1H10a1,1,0,0,1-1-1V43h2v3H45V12H40a3,3,0,0,1-3-3V2H11V21H9V1a1,1,0,0,1,1-1C40.48,0,38.19-.12,38.64.25c.13.1,8.19,10.16,8.27,10.34C46.91,14.35,47-2.95,47,47Z"></path>
      <path d="M40,41H2a1,1,0,0,1-1-1V24a1,1,0,0,1,1-1H40a1,1,0,0,1,1,1V40A1,1,0,0,1,40,41ZM3,39H39V25H3Z"></path>
      <path d="M9,28v3H7V28a1,1,0,0,0-2,0v8a1,1,0,0,0,2,0V33H9v3a1,1,0,0,0,2,0V28A1,1,0,0,0,9,28Z"></path>
      <path d="M18,27H14a1,1,0,0,0,0,2h1v7a1,1,0,0,0,2,0V29h1A1,1,0,0,0,18,27Z"></path>
      <path d="M27.29,27.29,25,29.59l-2.29-2.3A1,1,0,0,0,21,28v8a1,1,0,0,0,2,0V30.41l1.29,1.3a1,1,0,0,0,1.42,0L27,30.41V36a1,1,0,0,0,2,0V28A1,1,0,0,0,27.29,27.29Z"></path>
      <path d="M36,35H33V28a1,1,0,0,0-2,0v8a1,1,0,0,0,1,1h4A1,1,0,0,0,36,35Z"></path>
      <path d="M23.05,17.68l2-6a1,1,0,0,1,1.9.64l-2,6A1,1,0,0,1,23.05,17.68Z"></path>
      <path d="M29,18a1,1,0,0,1-.71-1.71L29.59,15l-1.3-1.29a1,1,0,0,1,1.42-1.42l2,2a1,1,0,0,1,0,1.42C29.53,17.89,29.54,18,29,18Z"></path>
      <path d="M21,18c-.54,0-.57-.15-2.71-2.29a1,1,0,0,1,0-1.42l2-2a1,1,0,0,1,1.42,1.42L20.41,15l1.3,1.29A1,1,0,0,1,21,18Z"></path>
    </g>
  </symbol>
  <symbol xmlns="http://www.w3.org/2000/svg" viewBox="0 0 48 48" id="Implementation">
    <defs></defs>
    <title>Implementation</title>
    <g id="Implementation">
      <path d="M6,23a1,1,0,0,1-2,0A1,1,0,0,1,6,23Z"></path>
      <path d="M20,12H3a3,3,0,0,0-3,3V33a3,3,0,0,0,3,3H20a3,3,0,0,0,3-3V15A3,3,0,0,0,20,12Zm-6,3h4a1,1,0,0,1,0,2H14A1,1,0,0,1,14,15ZM9,15a1,1,0,0,1,0,2A1,1,0,0,1,9,15ZM5,15a1,1,0,0,1,0,2A1,1,0,0,1,5,15ZM21,33a1,1,0,0,1-1,1H3a1,1,0,0,1-1-1V20H21Z"></path>
      <path d="M45,12H28a3,3,0,0,0-3,3V33a3,3,0,0,0,3,3H45a3,3,0,0,0,3-3V15A3,3,0,0,0,45,12Zm-6,3h4a1,1,0,0,1,0,2H39A1,1,0,0,1,39,15Zm-5,0a1,1,0,0,1,0,2A1,1,0,0,1,34,15Zm-4,0a1,1,0,0,1,0,2A1,1,0,0,1,30,15ZM46,33a1,1,0,0,1-1,1H28a1,1,0,0,1-1-1V20H46Z"></path>
      <path d="M13,24H9a1,1,0,0,1,0-2h4A1,1,0,0,1,13,24Z"></path>
      <path d="M6,27a1,1,0,0,1-2,0A1,1,0,0,1,6,27Z"></path>
      <path d="M18,28H9a1,1,0,0,1,0-2h9A1,1,0,0,1,18,28Z"></path>
      <path d="M10,31a1,1,0,0,1-2,0A1,1,0,0,1,10,31Z"></path>
      <path d="M18,32H13a1,1,0,0,1,0-2h5A1,1,0,0,1,18,32Z"></path>
      <path d="M31,23a1,1,0,0,1-2,0A1,1,0,0,1,31,23Z"></path>
      <path d="M38,24H34a1,1,0,0,1,0-2h4A1,1,0,0,1,38,24Z"></path>
      <path d="M31,27a1,1,0,0,1-2,0A1,1,0,0,1,31,27Z"></path>
      <path d="M43,28H34a1,1,0,0,1,0-2h9A1,1,0,0,1,43,28Z"></path>
      <path d="M35,31a1,1,0,0,1-2,0A1,1,0,0,1,35,31Z"></path>
      <path d="M43,32H38a1,1,0,0,1,0-2h5A1,1,0,0,1,43,32Z"></path>
      <path d="M35.52,6.93c0-.28.09.1-1.45-4.26a1,1,0,0,0-1.89.66l.56,1.58A21,21,0,0,0,12.93,6.15,1,1,0,0,0,14,7.85a19,19,0,0,1,18.09-1l-1.87.66a1,1,0,0,0,.66,1.89C34.89,7.94,35,8,35.2,7.75A1,1,0,0,0,35.52,6.93Z"></path>
      <path d="M34,40.15a19,19,0,0,1-18.09,1l1.87-.66a1,1,0,0,0-.66-1.89c-4.11,1.45-4.08,1.42-4.29,1.59a1,1,0,0,0-.36.85c0,.28-.09-.11,1.45,4.25a1,1,0,0,0,1.89-.66l-.56-1.58a21,21,0,0,0,19.81-1.24A1,1,0,0,0,34,40.15Z"></path>
    </g>
  </symbol>
  <symbol xmlns="http://www.w3.org/2000/svg" viewBox="0 0 48 48" id="Java Script">
    <defs></defs>
    <title>Java Script</title>
    <g id="Java_Script">
      <path d="M43,11c0-.5.36.13-8.21-10.58C34.49-.2,35.67,0,6,0A1,1,0,0,0,5,1V47a1,1,0,0,0,1,1H42a1,1,0,0,0,1-1C43-2.67,43,14.85,43,11ZM41,46H7V2H33V9a3,3,0,0,0,3,3h5Z"></path>
      <path d="M21,31v6a1,1,0,0,1-2,0V36a1,1,0,0,0-2,0v1a3,3,0,0,0,6,0V31A1,1,0,0,0,21,31Z"></path>
      <path d="M28,34a1,1,0,1,1,1-1,1,1,0,0,0,1,1c1.91,0,1-4-2-4a3,3,0,0,0,0,6,1,1,0,1,1-1,1,1,1,0,0,0-1-1c-1.91,0-1,4,2,4a3,3,0,0,0,0-6Z"></path>
      <path d="M33,44H15a3,3,0,0,1-3-3V29a3,3,0,0,1,3-3H33a3,3,0,0,1,3,3V41A3,3,0,0,1,33,44ZM15,28a1,1,0,0,0-1,1V41a1,1,0,0,0,1,1H33a1,1,0,0,0,1-1V29a1,1,0,0,0-1-1Z"></path>
      <path d="M11,6A1,1,0,0,1,9,6,1,1,0,0,1,11,6Z"></path>
      <path d="M18,7H14a1,1,0,0,1,0-2h4A1,1,0,0,1,18,7Z"></path>
      <path d="M11,10a1,1,0,0,1-2,0A1,1,0,0,1,11,10Z"></path>
      <path d="M24,11H14a1,1,0,0,1,0-2H24A1,1,0,0,1,24,11Z"></path>
      <path d="M11,22a1,1,0,0,1-2,0A1,1,0,0,1,11,22Z"></path>
      <path d="M18,23H14a1,1,0,0,1,0-2h4A1,1,0,0,1,18,23Z"></path>
      <path d="M24,23H22a1,1,0,0,1,0-2h2A1,1,0,0,1,24,23Z"></path>
      <path d="M20,19H18a1,1,0,0,1,0-2h2A1,1,0,0,1,20,19Z"></path>
      <path d="M32,19H24a1,1,0,0,1,0-2h8A1,1,0,0,1,32,19Z"></path>
      <path d="M15,14a1,1,0,0,1-2,0A1,1,0,0,1,15,14Z"></path>
      <path d="M30,15H18a1,1,0,0,1,0-2H30A1,1,0,0,1,30,15Z"></path>
      <path d="M15,18a1,1,0,0,1-2,0A1,1,0,0,1,15,18Z"></path>
    </g>
  </symbol>
  <symbol xmlns="http://www.w3.org/2000/svg" viewBox="0 0 48 48" id="Java">
    <defs></defs>
    <title>Java</title>
    <g id="Java">
      <path d="M46,47a1,1,0,0,1-1,1H9a1,1,0,0,1-1-1V43h2v3H44V12H39a3,3,0,0,1-3-3V2H10V21H8V1A1,1,0,0,1,9,0C39.24,0,37.19-.13,37.64.25c.23.23,8.15,10.1,8.27,10.34C45.91,14.35,46-2.95,46,47Z"></path>
      <path d="M39,41H3a1,1,0,0,1-1-1V24a1,1,0,0,1,1-1H39a1,1,0,0,1,1,1V40A1,1,0,0,1,39,41ZM4,39H38V25H4Z"></path>
      <path d="M22.05,17.68l2-6a1,1,0,0,1,1.9.64l-2,6A1,1,0,0,1,22.05,17.68Z"></path>
      <path d="M28,18a1,1,0,0,1-.71-1.71L28.59,15l-1.3-1.29a1,1,0,0,1,1.42-1.42l2,2a1,1,0,0,1,0,1.42C28.53,17.89,28.54,18,28,18Z"></path>
      <path d="M20,18c-.54,0-.57-.15-2.71-2.29a1,1,0,0,1,0-1.42l2-2a1,1,0,0,1,1.42,1.42L19.41,15l1.3,1.29A1,1,0,0,1,20,18Z"></path>
      <path d="M10,28v6a1,1,0,0,1-2,0V33a1,1,0,0,0-2,0v1a3,3,0,0,0,6,0V28A1,1,0,0,0,10,28Z"></path>
      <path d="M27.06,27.65,25,33.15l-2.06-5.5a1,1,0,0,0-1.88.7l3,8a1,1,0,0,0,1.88,0l3-8A1,1,0,0,0,27.06,27.65Z"></path>
      <path d="M17.89,27.55a1,1,0,0,0-1.78,0l-2,4C14,31.84,14,31.69,14,36a1,1,0,0,0,2,0V34h2v2a1,1,0,0,0,2,0V32C20,31.66,20.05,31.87,17.89,27.55ZM17,30.24,17.88,32H16.12Z"></path>
      <path d="M35.89,31.55l-2-4a1,1,0,0,0-1.78,0C30,31.87,30,31.67,30,32v4a1,1,0,0,0,2,0V34h2v2a1,1,0,0,0,2,0C36,31.7,36,31.85,35.89,31.55ZM33,30.24,33.88,32H32.12Z"></path>
    </g>
  </symbol>
  <symbol xmlns="http://www.w3.org/2000/svg" viewBox="0 0 48 48" id="Log">
    <defs></defs>
    <title>Log</title>
    <g id="Log">
      <path d="M23,36a2,2,0,0,0-2,2v2a2,2,0,0,0,4,0V38A2,2,0,0,0,23,36Z"></path>
      <path d="M43,11c0-.5.36.13-8.21-10.58C34.51-.17,35.63,0,6,0A1,1,0,0,0,5,1V47a1,1,0,0,0,1,1H42a1,1,0,0,0,1-1C43-2.67,43,14.85,43,11ZM16,44H12a1,1,0,0,1-1-1V35a1,1,0,0,1,2,0v7h3A1,1,0,0,1,16,44Zm11-4a4,4,0,0,1-8,0V38a4,4,0,0,1,8,0Zm10,4a1,1,0,0,1-2,0v-.56A4,4,0,0,1,29,40V38a4,4,0,0,1,7-2.67,1,1,0,0,1-1.49,1.34A2,2,0,0,0,31,38v2a2,2,0,0,0,3.72,1H34a1,1,0,0,1,0-2h2a1,1,0,0,1,1,1Zm4-13H7V2H33V9a3,3,0,0,0,3,3h5Z"></path>
      <path d="M17.05,12.68l2-6a1,1,0,0,1,1.9.64l-2,6A1,1,0,0,1,17.05,12.68Z"></path>
      <path d="M23,13a1,1,0,0,1-.71-1.71L23.59,10l-1.3-1.29a1,1,0,0,1,1.42-1.42l2,2a1,1,0,0,1,0,1.42C23.53,12.89,23.54,13,23,13Z"></path>
      <path d="M15,13c-.54,0-.57-.15-2.71-2.29a1,1,0,0,1,0-1.42l2-2a1,1,0,0,1,1.42,1.42L14.41,10l1.3,1.29A1,1,0,0,1,15,13Z"></path>
      <path d="M27,20H11a1,1,0,0,1,0-2H27A1,1,0,0,1,27,20Z"></path>
      <path d="M37,24H11a1,1,0,0,1,0-2H37A1,1,0,0,1,37,24Z"></path>
      <path d="M37,28H11a1,1,0,0,1,0-2H37A1,1,0,0,1,37,28Z"></path>
    </g>
  </symbol>
  <symbol xmlns="http://www.w3.org/2000/svg" viewBox="0 0 48 48" id="Maintenance">
    <defs></defs>
    <title>Maintenance</title>
    <g id="Maintenance">
      <path d="M34,12H4a4,4,0,0,0-4,4V44a4,4,0,0,0,4,4H34a4,4,0,0,0,4-4V16A4,4,0,0,0,34,12ZM2,16a2,2,0,0,1,2-2H34a2,2,0,0,1,2,2v4H2ZM36,44a2,2,0,0,1-2,2H4a2,2,0,0,1-2-2V22H36Z"></path>
      <path d="M6,17a1,1,0,0,1-2,0A1,1,0,0,1,6,17Z"></path>
      <path d="M10,17a1,1,0,0,1-2,0A1,1,0,0,1,10,17Z"></path>
      <path d="M14,17a1,1,0,0,1-2,0A1,1,0,0,1,14,17Z"></path>
      <path d="M33,18H23a1,1,0,0,1,0-2H33A1,1,0,0,1,33,18Z"></path>
      <path d="M44,0H14a4,4,0,0,0-4,4v6h2V8H46V32a2,2,0,0,1-2,2H40v2h4a4,4,0,0,0,4-4V4A4,4,0,0,0,44,0ZM15,5a1,1,0,0,1,0-2A1,1,0,0,1,15,5Zm4,0a1,1,0,0,1,0-2A1,1,0,0,1,19,5Zm4,0a1,1,0,0,1,0-2A1,1,0,0,1,23,5ZM43,5H33a1,1,0,0,1,0-2H43A1,1,0,0,1,43,5Z"></path>
      <path d="M17.19,38.63l6.44-6.44a4,4,0,0,0,4.89-4.88l-2.45,2.45L24,29.05l-.71-2.12,2.45-2.45a4,4,0,0,0-4.88,4.89l-6.44,6.44a4,4,0,0,0-4.89,4.88l2.45-2.45,2.12.71.71,2.12-2.45,2.45A4,4,0,0,0,17.19,38.63Z"></path>
      <polygon points="11.17 24.76 9.76 26.17 11.17 29 12.59 29 19.97 36.38 21.38 34.97 14 27.59 14 26.17 11.17 24.76"></polygon>
      <path d="M22.6,34.77l4.95,4.95a2,2,0,0,1-2.83,2.83L19.77,37.6a1,1,0,0,1,0-1.42l1.41-1.41A1,1,0,0,1,22.6,34.77Z"></path>
    </g>
  </symbol>
  <symbol xmlns="http://www.w3.org/2000/svg" viewBox="0 0 48 48" id="Mobilephone">
    <defs></defs>
    <title>Mobilephone</title>
    <g id="Mobilephone">
      <path d="M26,29H16a2,2,0,0,0-2,2v6a2,2,0,0,0,2,2H26a2,2,0,0,0,2-2V31A2,2,0,0,0,26,29Zm0,2v6h0l-3-3-1.78,1.78L19,33l-3,3.75V31Z"></path>
      <path d="M35,0H13a3,3,0,0,0-3,3V45a3,3,0,0,0,3,3H35a3,3,0,0,0,3-3V3A3,3,0,0,0,35,0ZM26,46H22a1,1,0,0,1,0-2h4A1,1,0,0,1,26,46Zm10-4H12V3a1,1,0,0,1,1-1h5a2,2,0,0,0,2,2h8a2,2,0,0,0,2-2h5a1,1,0,0,1,1,1Z"></path>
      <path d="M33,39H31a1,1,0,0,1,0-2h2A1,1,0,0,1,33,39Z"></path>
      <path d="M33,35H31a1,1,0,0,1,0-2h2A1,1,0,0,1,33,35Z"></path>
      <path d="M33,31H31a1,1,0,0,1,0-2h2A1,1,0,0,1,33,31Z"></path>
      <path d="M33,27H15a1,1,0,0,1,0-2H33A1,1,0,0,1,33,27Z"></path>
      <path d="M33,23H15a1,1,0,0,1,0-2H33A1,1,0,0,1,33,23Z"></path>
      <path d="M22.05,15.68l2-6a1,1,0,0,1,1.9.64l-2,6A1,1,0,0,1,22.05,15.68Z"></path>
      <path d="M28,16a1,1,0,0,1-.71-1.71L28.59,13l-1.3-1.29a1,1,0,0,1,1.42-1.42l2,2a1,1,0,0,1,0,1.42C28.53,15.89,28.54,16,28,16Z"></path>
      <path d="M20,16c-.54,0-.57-.15-2.71-2.29a1,1,0,0,1,0-1.42l2-2a1,1,0,0,1,1.42,1.42L19.41,13l1.3,1.29A1,1,0,0,1,20,16Z"></path>
    </g>
  </symbol>
  <symbol xmlns="http://www.w3.org/2000/svg" viewBox="0 0 48 48" id="operating system">
    <defs></defs>
    <title>operating system</title>
    <g id="operating_system">
      <path d="M32,4V3a3,3,0,0,0-3-3H7A3,3,0,0,0,4,3V45a3,3,0,0,0,3,3H29a3,3,0,0,0,3-3V32a12,12,0,0,1-2,0V42H6V3A1,1,0,0,1,7,2h5a2,2,0,0,0,2,2h8a2,2,0,0,0,2-2h5a1,1,0,0,1,1,1V4A14.77,14.77,0,0,1,32,4ZM16,44h4a1,1,0,0,1,0,2H16A1,1,0,0,1,16,44Z"></path>
      <path d="M43.37,15.57l-1.9-.76A9.83,9.83,0,0,0,41,13.55l.81-1.87a1,1,0,0,0-.21-1.1c-3-3-2.11-2.82-5.1-1.53a9.83,9.83,0,0,0-1.26-.52l-.76-1.9A1,1,0,0,0,33.5,6h-3a1,1,0,0,0-.93.63l-.76,1.9a9.83,9.83,0,0,0-1.26.52l-1.87-.81a1,1,0,0,0-1.1.21c-3,3-2.82,2.11-1.53,5.1a9.83,9.83,0,0,0-.52,1.26l-1.9.76a1,1,0,0,0-.63.93v3c0,.82.51.88,2.53,1.69a9.83,9.83,0,0,0,.52,1.26l-.81,1.87a1,1,0,0,0,.21,1.1c3,3,2.11,2.82,5.1,1.53a9.83,9.83,0,0,0,1.26.52l.76,1.9a1,1,0,0,0,.93.63h3a1,1,0,0,0,.93-.63l.76-1.9A9.83,9.83,0,0,0,36.45,27l1.87.81a1,1,0,0,0,1.1-.21c3-3,2.82-2.11,1.53-5.1a9.83,9.83,0,0,0,.52-1.26l1.9-.76A1,1,0,0,0,44,19.5v-3A1,1,0,0,0,43.37,15.57ZM42,18.82c-1.55.62-2.12.7-2.3,1.35-.82,2.89-1.42,1.11-.05,4.32l-1.16,1.16c-1.5-.64-2-1-2.58-.68-2.62,1.48-1.77-.26-3.09,3H31.18c-.62-1.53-.7-2.12-1.35-2.31-2.9-.81-1.08-1.42-4.32,0l-1.16-1.16c.77-1.8,1-2,.68-2.58-1.48-2.63.26-1.77-3-3.09V17.18c1.55-.62,2.12-.7,2.3-1.35.83-2.9,1.43-1.1.05-4.32l1.16-1.16c1.52.65,2,1,2.58.68,2.62-1.48,1.77.26,3.09-3h1.64c.62,1.53.7,2.12,1.35,2.31,2.9.81,1.08,1.42,4.32,0l1.16,1.16c-.77,1.8-1,2-.68,2.58,1.48,2.63-.26,1.77,3,3.09Z"></path>
      <path d="M35.73,19.47a4,4,0,0,0-5.2-5.2,1,1,0,0,1-.72-1.86,6,6,0,0,1,7.78,7.78A1,1,0,0,1,35.73,19.47Z"></path>
      <path d="M26.41,15.81a1,1,0,0,1,1.86.72,4,4,0,0,0,5.2,5.2,1,1,0,0,1,.72,1.86A6,6,0,0,1,26.41,15.81Z"></path>
      <path d="M10.08,31.38c.1.26,0,.16,2.21,2.33a1,1,0,0,0,1.42-1.42C13.29,31.87,11.66,32,25,32a1,1,0,0,0,0-2c-13.34,0-11.71.13-11.29-.29a1,1,0,0,0-1.42-1.42l-2,2A1,1,0,0,0,10.08,31.38Z"></path>
      <path d="M25.92,36.62c-.1-.26,0-.16-2.21-2.33a1,1,0,0,0-1.42,1.42c.42.42,2.05.29-11.29.29a1,1,0,0,0,0,2c13.34,0,11.71-.13,11.29.29a1,1,0,0,0,1.42,1.42l2-2A1,1,0,0,0,25.92,36.62Z"></path>
    </g>
  </symbol>
   <symbol xmlns="http://www.w3.org/2000/svg" viewBox="0 0 50 2" id="line">
    <path fill="#63c3ef" d="M0 0h50v2H0z"></path>
  </symbol>
    <symbol xmlns="http://www.w3.org/2000/svg" viewBox="0 0 508.044 508.044" id="quotes">
    <path d="M.108 352.536c0 66.794 54.144 120.938 120.937 120.938 66.794 0 120.938-54.144 120.938-120.938s-54.144-120.937-120.938-120.937c-13.727 0-26.867 2.393-39.168 6.61C109.093 82.118 230.814-18.543 117.979 64.303-7.138 156.17-.026 348.84.114 352.371c0 .055-.006.104-.006.165zm266.061 0c0 66.794 54.144 120.938 120.938 120.938s120.938-54.144 120.938-120.938S453.9 231.599 387.106 231.599c-13.728 0-26.867 2.393-39.168 6.61C375.154 82.118 496.875-18.543 384.04 64.303 258.923 156.17 266.034 348.84 266.175 352.371c0 .055-.006.104-.006.165z"></path>
  </symbol>
    <symbol xmlns="http://www.w3.org/2000/svg" viewBox="0 0 51 51" id="chevron">
    <circle cx="25.5" cy="25.5" r="25.5" fill="#393939"></circle>
    <rect x="24.4" y="27.9" width="1.6" height="15.24" rx=".8" transform="rotate(-39 11.114 37.674)"></rect>
    <rect x="33.3" y="27.9" width="1.6" height="15.24" rx=".8" transform="rotate(37.3 44.444 24.605)"></rect>
  </symbol>
    <symbol xmlns="http://www.w3.org/2000/svg" viewBox="0 0 24 24" id="menu">
    <path d="M21.5 24h-19A2.503 2.503 0 010 21.5v-19C0 1.122 1.121 0 2.5 0h19C22.879 0 24 1.122 24 2.5v19c0 1.378-1.121 2.5-2.5 2.5zM2.5 1C1.673 1 1 1.673 1 2.5v19c0 .827.673 1.5 1.5 1.5h19c.827 0 1.5-.673 1.5-1.5v-19c0-.827-.673-1.5-1.5-1.5z"></path>
    <path d="M16.5 8h-9a.5.5 0 010-1h9a.5.5 0 010 1zm0 4.5h-9a.5.5 0 010-1h9a.5.5 0 010 1zm0 4.5h-9a.5.5 0 010-1h9a.5.5 0 010 1z"></path>
  </symbol>
    <symbol xmlns="http://www.w3.org/2000/svg" viewBox="0 0 21.8 23.8" id="search">
    <path d="M.1 8.6a8.7 8.7 0 00.8 4.8 1 1 0 001.2.4.8.8 0 00.4-1.2 8.3 8.3 0 01-.7-3.8A7.62 7.62 0 0117 9.9a7.7 7.7 0 01-11.8 5.8.8.8 0 00-1.2.2.9.9 0 00.2 1.3 10 10 0 004.5 1.5 9.3 9.3 0 006.1-1.7l5.5 6.4a.9.9 0 00.6.3.7.7 0 00.7-.2.9.9 0 00.1-1.2l-5.6-6.4a8.9 8.9 0 002.6-5.8A9.33 9.33 0 10.1 8.6z" fill="#ecf6fc"></path>
  </symbol>
</svg>